<?xml version="1.0" encoding="UTF-8"?>
<svg id="Layer_1" xmlns="http://www.w3.org/2000/svg" version="1.1" viewBox="0 0 1179 1179">
  <!-- Generator: Adobe Illustrator 30.2.1, SVG Export Plug-In . SVG Version: 2.1.1 Build 1)  -->
  <path d="M533.04,814.31h-9.32c-2.92-3.32-6-6.24-9.77-8.83-3.65-2.71-9.28-4.13-17.3-4.13-6,0-12.6,1.18-19.65,3.41-7.33,2.26-15.43,4.85-24.51,7.66-9.07,2.83-19.53,5.43-30.84,7.54-11.55,2.35-24.15,3.56-38.16,3.56-25.65,0-50.64-4.73-75-14.14-24.39-9.44-47.33-24.63-69-45.7-19.81-20.02-36.75-43.56-50.04-70.87-13.69-27.22-20.26-58.9-20.26-94.69,0-30.51,5.4-59.6,16.61-87.27,10.82-27.67,26.26-52.15,45.67-73.22,19.78-21.19,42.87-37.92,69.49-50.4,26.38-12.48,55.35-18.6,86.91-18.6,12.48,0,23.78,1.18,33.67,3.65,9.77,2.35,18.6,5.06,26.38,8.23,7.78,3.07,14.83,5.79,21.43,8.14,6.57,2.47,12.84,3.65,18.96,3.65,7.99,0,14.11-1.3,17.54-3.89,3.53-2.71,6.57-5.55,9.41-8.83h9.07v122.12h-6.72c-3.53-15.43-8.23-30.87-13.9-45.94-6-14.95-13.78-28.25-23.91-40.03-10.22-11.43-23.18-20.83-38.98-27.92-15.65-7.05-35.3-10.7-58.63-10.7-21.31,0-40.27,3.41-55.71,10.13-15.4,6.6-28.61,15.52-39.19,26.74-10.49,11.3-19.08,24.24-25.44,39.07-6.24,14.98-10.94,30.51-14.26,47.12-3.29,16.49-5.4,33.19-6.48,50.16-.93,16.85-1.63,32.86-1.63,47.81,0,42.75,3.53,78.32,10.58,106.32,6.84,28.04,16.37,50.28,29.09,66.53,12.24,16.13,27.43,27.67,44.98,34.03,17.42,6.72,36.99,9.89,58.06,9.89,27.31,0,49.47-3.77,66.41-11.64,16.49-7.78,30.15-17.67,40.15-30.15,10.37-12.48,18.15-26.5,23.45-42.05,5.19-15.77,9.89-31.32,14.11-46.76h6.72v130.02Z"/>
  <path d="M646.2,812.53h9.07c2.8-3.17,6-6.24,9.65-8.95,3.77-2.59,9.53-3.89,17.3-3.89,6,0,12.6,1.09,19.9,3.32,7.2,2.35,15.31,4.82,24.27,7.78,9.56,2.68,19.65,5.28,30.96,7.54,11.55,2.23,24.15,3.29,38.16,3.29,25.8,0,50.77-4.7,74.88-13.9,24.39-9.53,47.48-24.72,69.12-45.91,19.93-19.93,36.63-43.35,50.16-70.78,13.44-27.31,20.14-58.87,20.14-94.69,0-30.48-5.52-59.57-16.37-87.36-11.18-27.55-26.38-51.94-46.15-73.25-19.65-21.19-42.63-37.92-69.12-50.28-26.5-12.36-55.47-18.6-86.91-18.6-12.81,0-23.91,1.18-33.79,3.65-9.77,2.35-18.48,5.06-26.26,8.14-7.99,3.17-15.07,5.88-21.43,8.35-6.48,2.35-12.93,3.65-19.05,3.65-8.02,0-13.9-1.3-17.33-3.89-3.53-2.71-6.81-5.76-9.65-9.07h-9.07v122.36h6.6c3.65-15.56,8.35-30.84,14.26-45.7,5.64-15.16,13.54-28.61,23.66-40.27,10.34-11.52,23.18-20.95,39.1-27.88,15.52-7.29,35.09-10.85,58.39-10.85,21.67,0,40.15,3.32,55.83,10.13,15.28,6.6,28.73,15.68,39.1,26.74,10.58,11.3,19.05,24.27,25.41,39.1,6.24,14.83,11.18,30.6,14.5,47.09,3.17,16.49,5.52,33.22,6.48,50.16.81,16.97,1.51,32.74,1.51,47.81,0,42.63-3.53,78.08-10.7,106.47-6.84,27.88-16.25,50.16-28.73,66.29-12.6,16.49-27.67,27.79-45.22,34.28-17.67,6.45-36.87,9.77-58.18,9.77-27.31,0-49.47-3.77-66.17-11.67-16.61-7.66-30.15-17.79-40.4-30.15-10.01-12.36-17.91-26.5-23.3-42.14-5.31-15.68-9.92-31.23-13.9-46.64h-6.72v129.99Z"/>
  <path d="M365.82,626.71v9.07c3.07,2.95,6,6.24,8.71,9.89,2.59,3.65,4.01,9.31,4.01,17.18,0,6.03-1.18,12.6-3.53,19.81-2.23,7.05-4.7,15.28-7.54,24.36-2.71,9.19-5.31,19.44-7.54,30.87-2.23,11.3-3.53,23.91-3.53,37.89,0,25.44,4.82,50.52,14.11,74.79,9.31,24.27,24.87,47.21,46.18,68.64,19.78,19.9,43.44,36.75,70.75,50.04,27.43,13.45,58.99,20.14,94.93,20.14,30.6,0,59.69-5.52,87.6-16.37,27.67-11.06,52.15-26.38,73.49-45.79,21.4-19.56,38.01-42.51,50.61-69.12,12.24-26.38,18.48-55.35,18.48-86.67,0-12.6-1.27-23.91-3.77-33.55-2.35-9.8-5.03-18.51-7.99-26.26-3.07-7.78-5.79-14.74-8.26-21.43-2.47-6.36-3.65-12.72-3.65-18.84,0-8.26,1.42-13.9,4.01-17.45,2.59-3.53,5.55-6.69,8.83-9.53v-9.19h-122.57v6.84c15.52,3.65,30.84,8.23,45.79,13.9,15.31,5.88,28.52,13.66,40.4,23.78,11.43,10.37,20.83,23.3,28.16,38.98,6.93,15.65,10.46,35.09,10.46,58.18,0,21.64-3.29,40.03-9.89,55.68-6.93,15.31-15.89,28.4-26.95,39.1-11.3,10.61-24.27,18.96-39.34,25.32-14.71,6.36-30.63,11.06-47,14.26-16.7,3.29-33.19,5.52-50.28,6.57-16.82.96-32.83,1.42-48.14,1.42-42.75,0-78.32-3.53-106.47-10.34-28.01-6.96-50.37-16.61-66.86-28.97-16.13-12.39-27.91-27.55-34.15-45.13-6.48-17.3-9.89-36.72-9.89-57.91,0-27.1,3.77-49.11,11.55-65.84,7.75-16.61,18-30.15,30.27-40.4,12.69-10.01,26.59-17.79,42.51-23.06,15.52-5.43,31.44-10.01,46.85-14.14v-6.72h-130.35Z"/>
  <path d="M587.45,543c-.36,4.34-2.83,17.67-14.5,29.3-3.04,3.08-13.17,12.15-29.42,14.62,4.46.57,18,3.17,29.42,14.47,11.79,11.67,14.38,25.2,14.95,29.57.72-4.13,2.83-17.79,14.38-29.57,11.67-11.52,25.2-13.9,29.33-14.47-4.25-.72-17.67-3.2-29.33-14.62-3.07-3.17-12.36-13.17-14.83-29.3"/>
  <path d="M800.34,552.41v-9.28c-3.17-2.83-6.12-6-8.71-9.68-2.71-3.65-4.22-9.41-4.22-17.06,0-6.12,1.3-12.84,3.77-19.9,2.11-7.17,4.58-15.31,7.3-24.39,2.92-9.16,5.4-19.41,7.78-30.84,2.11-11.3,3.17-23.91,3.17-37.8,0-25.8-4.46-50.64-13.9-74.88-9.53-24.27-24.72-47.12-46.03-68.67-20.02-19.9-43.59-36.75-70.9-50.04-27.31-13.42-58.87-20.26-94.9-20.26-30.63,0-60.05,5.55-87.72,16.49-27.67,10.94-52.18,26.26-73.37,45.91-21.31,19.56-37.92,42.54-50.52,68.91-12.24,26.5-18.6,55.23-18.6,86.67,0,12.6,1.18,23.78,3.65,33.67,2.59,9.77,5.31,18.48,8.26,26.26,3.04,7.78,5.76,14.83,8.11,21.31,2.47,6.6,3.65,12.84,3.65,18.96,0,8.11-1.3,13.9-3.89,17.3-2.59,3.53-5.64,6.72-8.71,9.53v9.19h122.36v-6.69c-15.43-3.68-30.87-8.26-45.82-14.02-15.19-5.67-28.61-13.78-40.27-23.78-11.52-10.25-21.07-23.09-28.25-38.77-6.96-15.77-10.49-35.21-10.49-58.27,0-21.67,3.41-40.27,10.01-55.71,6.72-15.52,15.92-28.49,26.98-39.1,11.06-10.58,24.36-18.96,38.98-25.41,15.07-6.24,30.84-11.09,47.33-14.26,16.61-3.29,33.22-5.43,50.28-6.36,16.73-1.06,32.98-1.54,48.05-1.54,42.75,0,78.17,3.41,106.44,10.49,28.16,6.81,50.52,16.49,66.77,28.85,16.25,12.36,27.67,27.31,34.37,44.98,6.48,17.42,9.92,36.75,9.92,58.06,0,27.19-4.01,49.11-11.79,65.81-7.9,16.61-17.91,30.06-30.27,40.4-12.48,10.01-26.62,17.91-42.26,23.09-15.68,5.31-31.32,10.01-46.88,14.02v6.81h130.35Z"/>
</svg>