<?xml version="1.0" encoding="UTF-8"?>
<svg id="Layer_1" xmlns="http://www.w3.org/2000/svg" version="1.1" viewBox="0 0 2556 1179">
  <!-- Generator: Adobe Illustrator 29.8.4, SVG Export Plug-In . SVG Version: 2.1.1 Build 6)  -->
  <defs>
    <style>
      .st0 {
        stroke: #000;
        stroke-miterlimit: 10;
      }
    </style>
  </defs>
  <path class="st0" d="M281.21,722.27c-80.76-21.68-136.45,0-204.45,0H29.15v-250.77h47.61v125.02c0-.15,0,.23,0,1.48v118.74c62.48,0,62.48-54.83,184.46-54.83,6.37,19.97,13.18,39.95,19.99,60.35Z"/>
  <path class="st0" d="M497.24,652.58l-12.32,47.6c-21.26,11.91-65.45,22.1-111.36,22.1-87.97,0-128.35-39.52-127.93-80.33.42-87.13,124.54-44.2,174.26-40.38,44.2,3.82,56.97-15.73,14.03-24.23-58.66-11.91-188.29-6.39-187.87-60.79.42-68.02,209.97-41.66,251.2-30.61l-14.88,49.3c-29.33-11.91-205.72-60.35-204.87-5.95.42,29.33,125.8,27.2,177.24,42.07,17.42,5.1,29.75,20.41,26.34,41.65-2.11,15.73-19.54,29.75-54.82,30.6-32.3.84-172.14-43.36-175.54-3.41-4.26,56.11,226.54,46.76,246.51,12.34Z"/>
  <path class="st0" d="M628.14,599.44h-92.43c1.38,40.78,17.3,70.8-3.99,122.41l-62.48.42,62.48-162.79c40.38-106.25,88.41-126.24,130.05-7.21l59.51,169.59h-51.85l-41.29-122.41ZM626.28,593.91l-15.92-47.17c-12.33-36.14-41.65-65.45-62.47-13.18-9.42,23.75-12.18,43.06-12.18,60.35h90.57Z"/>
  <path class="st0" d="M974.94,596.9c.84,62.9-44.2,125.38-143.24,125.38h-110.51v-250.77h110.51c99.04,0,144.08,62.9,143.24,125.38ZM927.33,596.91c0-59.93-36.98-119.87-110.51-119.87h-48.03v240.14h48.03c73.53,0,110.51-60.35,110.51-120.27Z"/>
  <path class="st0" d="M1579.53,707.89h-51.43l-54.4-189.14c-13.18-45.04-44.64-31.44-39.96,16.58,2.55,28.89,16.99,51.43,25.07,78.63,11.91,40.81,14.03,93.94-39.53,93.94-25.09,0-38.27-33.59-44.2-53.56l-3.82-12.33-35.7-123.25c-11.07-38.25-33.15-34.85-43.36.85-25.51,88.83,20.41,107.96-1.27,188.29h-63.34l59.51-190c12.33-37.82,31.88-60.77,51.43-60.77h1.27c16.15.42,31.88,16.99,42.93,53.13l3.82,12.33,35.28,123.25c12.76,44.2,51.87,36.98,31.46-30.18-8.5-27.63-21.25-50.16-25.93-79.48-5.95-39.09,1.27-79.05,48.88-79.05,16.58,0,33.15,16.15,44.2,53.13l59.08,197.64Z"/>
  <path class="st0" d="M1712.75,585.07h-92.43c1.38,40.78,17.3,70.8-3.99,122.41l-62.48.42,62.48-162.79c40.38-106.25,88.41-126.24,130.05-7.21l59.51,169.59h-51.85l-41.3-122.41ZM1710.89,579.53l-15.92-47.17c-12.33-36.14-41.65-65.45-62.47-13.18-9.42,23.75-12.18,43.06-12.18,60.35h90.57Z"/>
  <path class="st0" d="M2055.63,457.13v167.88c0,75.66-23.8,82.89-40.8,82.89-91.81,0-194.24-333.66-200.61-170.02-3.4,90.97,45.05,130.5,53.13,170.02h-63.34v-168.31c0-75.65,23.81-82.45,40.82-82.45,92.65,0,194.24,333.22,200.61,169.59,3.4-90.96-45.05-130.48-53.13-169.59h63.32Z"/>
  <path class="st0" d="M2315.08,651.38c-19.55,31.46-61.21,56.53-116.04,56.53-197.64,0-180.65-250.77-9.78-250.77,39.53,0,75.23,24.22,118.58,12.74-3.82,11.05-15.73,48.88-19.97,60.36-53.56,0-80.33-85.02-136.43-62.07-96.05,39.11-28.49,248.64,62.48,232.51,46.32-8.08,71.82-38.69,78.63-64.61l22.54,15.31Z"/>
  <path class="st0" d="M2526.85,457.14l-54.83,250.77h-47.61l47.61-124.11c-110.09,101.17-171.3-63.76-171.3-126.66h51.85c0,46.32,30.6,143.23,96.49,131.76,15.71-2.98,28.47-14.45,29.75-35.28,1.69-34.01-25.07-58.24-14.87-96.49,20.83,0,41.66,0,62.92.01Z"/>
  <g id="reGW99">
    <path class="st0" d="M1028.91,686.62c44.69,42.62,115.65,9.07,153.55-26.31,37.16-34.69,70.58-97.69,43.39-147.22.59-1.21,1.49-.19,2.14.41,6.57,6.05,18.2,31.03,21.21,40.05,41.96,125.54-105.2,210.3-207.08,147.52-51.24-31.57-53.16-99.7,15.72-111.78,11.6-2.03,21.67,1.04,31.41-6.88,20.17-16.39,21.23-48.51,25.13-72.3,2.05-.25,1.36-.03,1.79,1.18,2.11,5.93,2.24,14.73,3.54,21.14,3.82,18.82,9.27,41.53,26.21,52.92,5.55,3.74,14.86.87,21.22-.79,25.04-6.53,41.19-22.87,43.38-49.37,3.41-41.21-27.38-60.75-65.08-60.35-68.95.73-162.6,92.51-153.57,163.3.65,5.07,2.89,9.79,2.97,14.9-4.49-5.18-8.24-13.36-10.8-19.84-33.16-84.06,22.86-160.57,107.19-174.76,46.97-7.91,120.29,10.33,122.69,68.25,1.72,41.37-28.31,61.67-66.34,64.67-20.1,13.82-24.19,35.46-27.97,57.97-.45,2.69-2,21.5-3.95,21.56l-2.77-11.68c-2.44-20.14-4.83-44.32-19.45-59.68-1.03-1.08-8.87-7.77-9.71-8.16-6.07-2.79-33.62,2.55-40.84,5.07-44.27,15.42-44.83,60.74-13.98,90.16Z"/>
  </g>
</svg>