<svg xmlns="http://www.w3.org/2000/svg" xmlns:xlink="http://www.w3.org/1999/xlink" width="1078" zoomAndPan="magnify" viewBox="0 0 808.5 290.999983" height="388" preserveAspectRatio="xMidYMid meet" version="1.0"><defs><g/><clipPath id="6a1a4b9302"><rect x="0" width="616" y="0" height="164"/></clipPath><clipPath id="88507b18b8"><path d="M 393.691406 96.429688 L 449.5625 96.429688 L 449.5625 149.601562 L 393.691406 149.601562 Z M 393.691406 96.429688 " clip-rule="nonzero"/></clipPath><clipPath id="7943ef0694"><path d="M 421.582031 96.429688 L 428.167969 116.738281 L 449.476562 116.738281 L 432.238281 129.289062 L 438.820312 149.601562 L 421.582031 137.046875 L 404.34375 149.601562 L 410.929688 129.289062 L 393.691406 116.738281 L 415 116.738281 Z M 421.582031 96.429688 " clip-rule="nonzero"/></clipPath><clipPath id="fc2dc17d12"><path d="M 0.691406 0.429688 L 56.480469 0.429688 L 56.480469 53.601562 L 0.691406 53.601562 Z M 0.691406 0.429688 " clip-rule="nonzero"/></clipPath><clipPath id="77c9e0b0a6"><path d="M 28.582031 0.429688 L 35.167969 20.738281 L 56.476562 20.738281 L 39.238281 33.289062 L 45.820312 53.601562 L 28.582031 41.046875 L 11.34375 53.601562 L 17.929688 33.289062 L 0.691406 20.738281 L 22 20.738281 Z M 28.582031 0.429688 " clip-rule="nonzero"/></clipPath><clipPath id="aa37c10b2a"><rect x="0" width="57" y="0" height="54"/></clipPath></defs><g transform="matrix(1, 0, 0, 1, 96, 73)"><g clip-path="url(#6a1a4b9302)"><g fill="#000000" fill-opacity="1"><g transform="translate(1.659295, 122.174795)"><g><path d="M 70.578125 -107.890625 C 74.035156 -111.242188 77.953125 -113.488281 82.328125 -114.625 C 86.710938 -115.757812 91.097656 -115.757812 95.484375 -114.625 C 99.867188 -113.488281 103.679688 -111.242188 106.921875 -107.890625 C 110.378906 -104.535156 112.675781 -100.664062 113.8125 -96.28125 C 114.945312 -91.90625 114.945312 -87.523438 113.8125 -83.140625 C 112.675781 -78.765625 110.378906 -74.847656 106.921875 -71.390625 L 94.109375 -58.25 L 108.546875 -43.8125 C 112.003906 -40.457031 114.300781 -36.5625 115.4375 -32.125 C 116.570312 -27.6875 116.570312 -23.273438 115.4375 -18.890625 C 114.300781 -14.515625 112.003906 -10.648438 108.546875 -7.296875 C 105.296875 -3.941406 101.476562 -1.695312 97.09375 -0.5625 C 92.71875 0.570312 88.335938 0.570312 83.953125 -0.5625 C 79.578125 -1.695312 75.660156 -3.941406 72.203125 -7.296875 L 57.765625 -21.734375 L 45.921875 -9.40625 C 43.109375 -6.382812 40.050781 -4.0625 36.75 -2.4375 C 33.445312 -0.8125 29.6875 0 25.46875 0 C 20.820312 0 16.550781 -1.132812 12.65625 -3.40625 C 8.757812 -5.675781 5.675781 -8.757812 3.40625 -12.65625 C 1.132812 -16.550781 0 -20.820312 0 -25.46875 L 0 -89.71875 C 0 -94.59375 1.132812 -98.972656 3.40625 -102.859375 C 5.675781 -106.753906 8.757812 -109.835938 12.65625 -112.109375 C 16.550781 -114.378906 20.820312 -115.515625 25.46875 -115.515625 C 31.851562 -115.515625 37.394531 -113.625 42.09375 -109.84375 C 46.800781 -106.0625 49.859375 -101.25 51.265625 -95.40625 L 41.859375 -81.9375 C 41.753906 -81.5 41.890625 -81.09375 42.265625 -80.71875 C 42.640625 -80.34375 43.046875 -80.367188 43.484375 -80.796875 Z M 70.578125 -107.890625 "/></g></g></g><g fill="#000000" fill-opacity="1"><g transform="translate(120.910443, 122.174795)"><g><path d="M 0 -89.234375 C 0 -94.097656 1.109375 -98.503906 3.328125 -102.453125 C 5.546875 -106.410156 8.628906 -109.550781 12.578125 -111.875 C 16.523438 -114.195312 21.039062 -115.359375 26.125 -115.359375 L 68.46875 -115.359375 C 73.550781 -115.359375 78.007812 -114.085938 81.84375 -111.546875 C 85.6875 -109.003906 88.632812 -105.703125 90.6875 -101.640625 C 92.75 -97.585938 93.753906 -93.265625 93.703125 -88.671875 C 93.648438 -84.078125 92.320312 -79.722656 89.71875 -75.609375 C 87.125 -71.390625 83.929688 -68.441406 80.140625 -66.765625 C 76.359375 -65.085938 72.035156 -64.140625 67.171875 -63.921875 C 66.628906 -63.921875 66.359375 -63.625 66.359375 -63.03125 C 66.359375 -62.4375 66.628906 -62.03125 67.171875 -61.8125 C 71.609375 -61.269531 75.9375 -61.566406 80.15625 -62.703125 C 84.375 -63.835938 88.101562 -66.082031 91.34375 -69.4375 C 93.507812 -64.675781 94.210938 -59.507812 93.453125 -53.9375 C 92.691406 -48.375 90.53125 -43.804688 86.96875 -40.234375 C 84.582031 -37.535156 81.820312 -35.617188 78.6875 -34.484375 C 75.550781 -33.347656 72.253906 -32.5625 68.796875 -32.125 C 68.253906 -32.125 67.984375 -31.796875 67.984375 -31.140625 C 67.984375 -30.492188 68.253906 -30.171875 68.796875 -30.171875 C 73.015625 -29.742188 77.125 -30.070312 81.125 -31.15625 C 85.125 -32.238281 88.640625 -34.5625 91.671875 -38.125 C 92.535156 -36.71875 93.15625 -35.148438 93.53125 -33.421875 C 93.914062 -31.691406 94.109375 -29.097656 94.109375 -25.640625 C 94.109375 -23.148438 93.617188 -20.414062 92.640625 -17.4375 C 91.671875 -14.46875 90.128906 -11.65625 88.015625 -9 C 85.910156 -6.351562 83.257812 -4.191406 80.0625 -2.515625 C 76.875 -0.835938 73.007812 0 68.46875 0 L 25.796875 0 C 21.035156 0 16.679688 -1.160156 12.734375 -3.484375 C 8.785156 -5.816406 5.675781 -8.925781 3.40625 -12.8125 C 1.132812 -16.707031 0 -20.984375 0 -25.640625 Z M 0 -89.234375 "/></g></g></g><g fill="#000000" fill-opacity="1"><g transform="translate(219.231788, 122.174795)"><g><path d="M 25.640625 -0.15625 C 20.878906 -0.15625 16.550781 -1.34375 12.65625 -3.71875 C 8.757812 -6.101562 5.675781 -9.269531 3.40625 -13.21875 C 1.132812 -17.164062 0 -21.46875 0 -26.125 L 0 -89.40625 C 0 -94.15625 1.132812 -98.453125 3.40625 -102.296875 C 5.675781 -106.140625 8.757812 -109.195312 12.65625 -111.46875 C 16.550781 -113.738281 20.878906 -114.875 25.640625 -114.875 C 30.609375 -114.875 35.039062 -113.738281 38.9375 -111.46875 C 42.832031 -109.195312 45.941406 -106.140625 48.265625 -102.296875 C 50.585938 -98.453125 51.75 -94.15625 51.75 -89.40625 L 51.75 -26.125 C 51.75 -21.46875 50.585938 -17.164062 48.265625 -13.21875 C 45.941406 -9.269531 42.832031 -6.101562 38.9375 -3.71875 C 35.039062 -1.34375 30.609375 -0.15625 25.640625 -0.15625 Z M 25.640625 -0.15625 "/></g></g></g><g fill="#000000" fill-opacity="1"><g transform="translate(276.180295, 122.174795)"><g><path d="M 26.9375 1.140625 C 21.957031 1.140625 17.410156 -0.046875 13.296875 -2.421875 C 9.191406 -4.804688 5.945312 -8 3.5625 -12 C 1.1875 -16.007812 0 -20.445312 0 -25.3125 L 0 -88.90625 C 0 -93.78125 1.1875 -98.191406 3.5625 -102.140625 C 5.945312 -106.085938 9.191406 -109.25 13.296875 -111.625 C 17.410156 -114.007812 21.957031 -115.203125 26.9375 -115.203125 L 58.890625 -115.203125 C 65.378906 -115.203125 71.410156 -114.007812 76.984375 -111.625 C 82.554688 -109.25 87.425781 -105.953125 91.59375 -101.734375 C 95.757812 -97.515625 99.03125 -92.59375 101.40625 -86.96875 C 103.78125 -81.34375 104.96875 -75.335938 104.96875 -68.953125 C 104.96875 -62.460938 103.722656 -56.40625 101.234375 -50.78125 C 98.753906 -45.15625 95.347656 -40.207031 91.015625 -35.9375 C 86.691406 -31.664062 81.660156 -28.363281 75.921875 -26.03125 C 70.191406 -23.707031 64.082031 -22.65625 57.59375 -22.875 L 54.671875 -38.78125 C 54.460938 -39.425781 54.140625 -39.691406 53.703125 -39.578125 C 53.273438 -39.472656 53.0625 -39.097656 53.0625 -38.453125 L 53.0625 -25.3125 C 53.0625 -20.550781 51.867188 -16.171875 49.484375 -12.171875 C 47.109375 -8.171875 43.945312 -4.953125 40 -2.515625 C 36.050781 -0.078125 31.695312 1.140625 26.9375 1.140625 Z M 55.484375 -74.953125 C 55.054688 -74.953125 54.648438 -74.953125 54.265625 -74.953125 C 53.890625 -74.953125 53.488281 -74.847656 53.0625 -74.640625 L 53.0625 -63.4375 C 53.925781 -62.894531 54.734375 -62.625 55.484375 -62.625 C 57.210938 -62.625 58.695312 -63.242188 59.9375 -64.484375 C 61.1875 -65.734375 61.8125 -67.222656 61.8125 -68.953125 C 61.8125 -70.679688 61.1875 -72.113281 59.9375 -73.25 C 58.695312 -74.382812 57.210938 -74.953125 55.484375 -74.953125 Z M 55.484375 -74.953125 "/></g></g></g><g fill="#000000" fill-opacity="1"><g transform="translate(384.074215, 122.174795)"><g><path d="M 25.640625 -0.15625 C 20.878906 -0.15625 16.550781 -1.34375 12.65625 -3.71875 C 8.757812 -6.101562 5.675781 -9.269531 3.40625 -13.21875 C 1.132812 -17.164062 0 -21.46875 0 -26.125 L 0 -89.40625 C 0 -94.15625 1.132812 -98.453125 3.40625 -102.296875 C 5.675781 -106.140625 8.757812 -109.195312 12.65625 -111.46875 C 16.550781 -113.738281 20.878906 -114.875 25.640625 -114.875 C 30.609375 -114.875 35.039062 -113.738281 38.9375 -111.46875 C 42.832031 -109.195312 45.941406 -106.140625 48.265625 -102.296875 C 50.585938 -98.453125 51.75 -94.15625 51.75 -89.40625 L 51.75 -26.125 C 51.75 -21.46875 50.585938 -17.164062 48.265625 -13.21875 C 45.941406 -9.269531 42.832031 -6.101562 38.9375 -3.71875 C 35.039062 -1.34375 30.609375 -0.15625 25.640625 -0.15625 Z M 25.640625 -0.15625 "/></g></g></g><g fill="#000000" fill-opacity="1"><g transform="translate(441.0227, 122.174795)"><g><path d="M 14.109375 -2.109375 C 9.890625 -4.160156 6.507812 -7.050781 3.96875 -10.78125 C 1.425781 -14.519531 -0.03125 -18.632812 -0.40625 -23.125 C -0.78125 -27.613281 0.00390625 -31.910156 1.953125 -36.015625 L 32.609375 -101.078125 C 34.878906 -105.953125 38.125 -109.628906 42.34375 -112.109375 C 46.5625 -114.597656 51.078125 -115.867188 55.890625 -115.921875 C 60.703125 -115.984375 65.21875 -114.796875 69.4375 -112.359375 C 73.65625 -109.921875 76.957031 -106.21875 79.34375 -101.25 L 110.328125 -36.015625 C 112.378906 -31.910156 113.1875 -27.613281 112.75 -23.125 C 112.320312 -18.632812 110.863281 -14.519531 108.375 -10.78125 C 105.894531 -7.050781 102.488281 -4.160156 98.15625 -2.109375 C 93.9375 -0.160156 89.554688 0.617188 85.015625 0.234375 C 80.472656 -0.140625 76.363281 -1.597656 72.6875 -4.140625 C 69.007812 -6.679688 66.144531 -10.0625 64.09375 -14.28125 L 50.140625 -43.640625 C 50.023438 -43.960938 49.75 -44.070312 49.3125 -43.96875 C 48.882812 -43.863281 48.726562 -43.539062 48.84375 -43 L 53.21875 -24.828125 L 48.34375 -14.28125 C 46.289062 -10.0625 43.398438 -6.679688 39.671875 -4.140625 C 35.941406 -1.597656 31.832031 -0.140625 27.34375 0.234375 C 22.851562 0.617188 18.441406 -0.160156 14.109375 -2.109375 Z M 14.109375 -2.109375 "/></g></g></g><g fill="#000000" fill-opacity="1"><g transform="translate(557.353418, 122.174795)"><g><path d="M 25.640625 -0.15625 C 20.878906 -0.15625 16.550781 -1.34375 12.65625 -3.71875 C 8.757812 -6.101562 5.675781 -9.269531 3.40625 -13.21875 C 1.132812 -17.164062 0 -21.46875 0 -26.125 L 0 -89.40625 C 0 -94.15625 1.132812 -98.453125 3.40625 -102.296875 C 5.675781 -106.140625 8.757812 -109.195312 12.65625 -111.46875 C 16.550781 -113.738281 20.878906 -114.875 25.640625 -114.875 C 30.609375 -114.875 35.039062 -113.738281 38.9375 -111.46875 C 42.832031 -109.195312 45.941406 -106.140625 48.265625 -102.296875 C 50.585938 -98.453125 51.75 -94.15625 51.75 -89.40625 L 51.75 -26.125 C 51.75 -21.46875 50.585938 -17.164062 48.265625 -13.21875 C 45.941406 -9.269531 42.832031 -6.101562 38.9375 -3.71875 C 35.039062 -1.34375 30.609375 -0.15625 25.640625 -0.15625 Z M 25.640625 -0.15625 "/></g></g></g></g></g><g clip-path="url(#88507b18b8)"><g clip-path="url(#7943ef0694)"><g transform="matrix(1, 0, 0, 1, 393, 96)"><g clip-path="url(#aa37c10b2a)"><g clip-path="url(#fc2dc17d12)"><g clip-path="url(#77c9e0b0a6)"><path fill="#ffffff" d="M 0.691406 0.429688 L 56.5625 0.429688 L 56.5625 53.601562 L 0.691406 53.601562 Z M 0.691406 0.429688 " fill-opacity="1" fill-rule="nonzero"/></g></g></g></g></g></g></svg>