<?xml version="1.0" encoding="UTF-8"?>
<svg id="Layer_1" xmlns="http://www.w3.org/2000/svg" version="1.1" viewBox="0 0 2556 1179">
  <!-- Generator: Adobe Illustrator 29.8.4, SVG Export Plug-In . SVG Version: 2.1.1 Build 6)  -->
  <path d="M129.47,668.33h115.12v-25.24l42.53,34.59v25.24h-115.12l-42.53-34.59ZM157.54,474.94l42.53,34.31v133.84h-42.53v-168.15Z"/>
  <path d="M308.11,668.33h112.29v-24.95l42.53,34.59v24.95h-112.29l-42.53-34.59ZM335.9,499.61h81.95v-24.67l42.53,34.31v24.67h-81.95v24.67h-42.53v-58.98ZM335.9,583.26h79.11v-24.67l42.53,34.31v24.95h-79.11v25.52h-42.53v-60.11Z"/>
  <path d="M482.78,668.33h28.35l24.39-56.99h82.23l15.6,34.31h-62.67l-24.39,57.28h-20.98l-42.53-34.59ZM575.5,511.52l25.52,60.68-5.67,14.18h-49.34l29.49-74.86ZM643.55,668.33h28.36l-86.48-194.52,54.16,43.95,82.23,185.16h-35.73l-42.53-34.59Z"/>
  <path d="M737.41,668.33h73.72c61.25,0,104.06-39.13,104.06-98.96,0-29.49-11.63-54.73-32.61-71.74l36.58,29.49c21.27,17.01,32.61,42.25,32.61,71.74,0,59.83-49.91,104.06-111.15,104.06h-60.68l-42.53-34.59ZM765.2,499.61h40.55c39.13,0,63.52,14.75,74.29,38.56-9.36-2.84-19.85-4.25-31.76-4.25h-40.55v109.45h-42.53v-143.76Z"/>
  <g>
    <circle cx="1103.19" cy="557.75" r="47.02"/>
    <path d="M1003.38,572.2c0-41.12,27.79-73.72,75.71-73.72,30.06,0,51.04,14.75,62.95,33.74-7.94-3.12-17.01-4.82-27.22-4.82-47.92,0-75.71,32.89-75.71,74.01,0,14.46,3.97,27.5,10.77,38.28-26.94-9.92-46.5-35.16-46.5-67.49Z"/>
  </g>
  <path d="M1254.6,668.33h27.79v-150.57l42.53,53.02v132.14h-27.79l-42.53-34.59ZM1280.69,474.94l43.38,15.88,36.29,44.8-15.31,18.71-64.37-79.4ZM1342.51,592.62h5.1l59.55-74.86v74.01l-23.82,29.77h-5.1l-35.73-28.92ZM1407.16,668.33h27.79v-193.38l42.53,34.31v193.67h-27.79l-42.53-34.59Z"/>
  <path d="M1506.97,668.33h28.36l24.39-56.99h82.23l15.6,34.31h-62.67l-24.39,57.28h-20.98l-42.53-34.59ZM1599.69,511.52l25.52,60.68-5.67,14.18h-49.34l29.49-74.86ZM1667.74,668.33h28.35l-86.48-194.52,54.16,43.95,82.23,185.16h-35.73l-42.53-34.59Z"/>
  <path d="M1761.6,668.33h26.65v-148.87l42.53,49.34v134.12h-26.65l-42.53-34.59ZM1784.57,474.94l43.38,15.88,86.2,99.81v34.31l-129.58-150ZM1916.7,668.33h24.1v-193.38l42.53,34.31v193.67h-24.1l-42.53-34.59Z"/>
  <path d="M2042.03,572.2c0-38,29.21-74.01,76.56-74.01,23.54,0,46.22,7.66,66.92,19.28v-29.21l35.73,29.21v28.92c-20.7-11.63-43.38-19.28-66.92-19.28-47.35,0-76.56,36.01-76.56,74.29,0,13.61,3.69,27.22,10.77,38.56-29.77-10.78-46.5-38.28-46.5-67.77ZM2091.37,683.07l-42.25-34.59c16.73,13.61,39.13,22.4,68.05,22.4,24.39,0,47.64-4.82,70.32-17.01v-30.34l35.73,28.92v36.01c-22.68,12.19-39.13,16.73-63.52,16.73-28.92,0-51.61-8.79-68.34-22.12Z"/>
  <path d="M2252.71,474.94l43.38,15.88,24.1,30.91-15.6,19.85-51.89-66.64ZM2290.71,668.33h28.36v-102.36l71.46-91.02,36.01,28.92-64.93,82.8v116.26h-28.36l-42.53-34.59Z"/>
  <path d="M1050.45,681.09l-39.98-32.61c17.3,13.89,39.7,22.4,66.07,22.4,67.49,0,105.77-47.92,105.77-99.53,0-30.62-13.04-57.56-35.44-75.71l35.73,28.92c22.4,18.15,35.73,45.08,35.73,75.99,0,51.32-43.95,104.63-105.77,104.63-26.37,0-45.08-9.92-62.1-24.1Z"/>
</svg>