<?xml version="1.0" encoding="UTF-8"?>
<svg id="Layer_1" xmlns="http://www.w3.org/2000/svg" version="1.1" viewBox="0 0 2556 1179">
  <!-- Generator: Adobe Illustrator 29.8.4, SVG Export Plug-In . SVG Version: 2.1.1 Build 6)  -->
  <defs>
    <style>
      .st0 {
        stroke: #fff;
        stroke-miterlimit: 10;
        stroke-width: 7px;
      }
    </style>
  </defs>
  <path class="st0" d="M333.99,690.69c-70.17-18.84-118.56,0-177.64,0h-41.36v-217.88h41.36v108.63c0-.13,0,.2,0,1.29v103.17c54.29,0,54.29-47.64,160.27-47.64,5.54,17.35,11.45,34.71,17.37,52.44Z"/>
  <path class="st0" d="M529.48,630.14l-10.71,41.36c-18.47,10.34-56.87,19.2-96.76,19.2-76.44,0-111.52-34.34-111.16-69.79.36-75.7,108.21-38.41,151.41-35.08,38.41,3.32,49.5-13.67,12.19-21.05-50.96-10.34-163.59-5.55-163.23-52.81.36-59.1,182.43-36.19,218.26-26.59l-12.93,42.84c-25.48-10.34-178.74-52.44-178-5.17.36,25.48,109.31,23.63,153.99,36.56,15.14,4.43,25.84,17.73,22.89,36.19-1.84,13.67-16.98,25.85-47.63,26.59-28.06.73-149.56-37.68-152.52-2.96-3.7,48.75,196.83,40.62,214.18,10.72Z"/>
  <path class="st0" d="M650.99,583.97h-80.3c1.2,35.44,15.03,61.52-3.47,106.36l-54.29.37,54.29-141.45c35.08-92.32,76.81-109.68,112.99-6.27l51.71,147.35h-45.05l-35.88-106.36ZM649.38,579.17l-13.84-40.99c-10.71-31.4-36.19-56.87-54.27-11.45-8.18,20.64-10.58,37.42-10.58,52.44h78.69Z"/>
  <path class="st0" d="M960.1,581.76c.73,54.65-38.41,108.94-124.46,108.94h-96.02v-217.88h96.02c86.05,0,125.19,54.65,124.46,108.94ZM918.73,581.77c0-52.07-32.13-104.15-96.02-104.15h-41.73v208.64h41.73c63.89,0,96.02-52.44,96.02-104.5Z"/>
  <path class="st0" d="M1197.74,581.65c0,60.19-52.11,109.05-116.34,109.05s-116.34-48.86-116.34-109.05,52.11-109.31,116.34-109.31,116.34,48.86,116.34,109.31ZM1154.88,568.76c-11.86-56.8-54.33-97.06-94.84-89.76-40.65,7.04-63.97,58.76-52.11,115.69,11.86,56.41,54.59,96.67,95.23,89.63,40.65-7.3,63.97-59.02,51.72-115.56Z"/>
  <path class="st0" d="M1316.38,581.65c0,60.19-52.11,109.05-116.34,109.05s-116.34-48.86-116.34-109.05,52.11-109.31,116.34-109.31,116.34,48.86,116.34,109.31ZM1273.52,568.76c-11.86-56.8-54.33-97.06-94.84-89.76-40.65,7.04-63.97,58.76-52.11,115.69,11.86,56.41,54.59,96.67,95.23,89.63,40.65-7.3,63.97-59.02,51.72-115.56Z"/>
  <path class="st0" d="M1598.43,690.69h-44.69l-47.27-164.34c-11.45-39.14-38.78-27.32-34.72,14.41,2.21,25.1,14.76,44.69,21.78,68.32,10.34,35.46,12.19,81.62-34.34,81.62-21.8,0-33.25-29.18-38.41-46.54l-3.32-10.71-31.02-107.09c-9.61-33.23-28.8-30.28-37.68.74-22.16,77.18,17.73,93.8-1.11,163.59h-55.03l51.71-165.08c10.71-32.86,27.7-52.8,44.69-52.8h1.11c14.03.36,27.7,14.76,37.3,46.16l3.32,10.71,30.66,107.09c11.09,38.41,45.06,32.13,27.33-26.23-7.39-24.01-18.46-43.58-22.53-69.06-5.17-33.96,1.11-68.68,42.47-68.68,14.41,0,28.81,14.03,38.41,46.16l51.33,171.72Z"/>
  <path class="st0" d="M1725.57,583.97h-80.3c1.2,35.44,15.03,61.52-3.47,106.36l-54.29.37,54.29-141.45c35.08-92.32,76.81-109.68,112.99-6.27l51.71,147.35h-45.05l-35.88-106.36ZM1723.96,579.17l-13.84-40.99c-10.71-31.4-36.19-56.87-54.27-11.45-8.18,20.64-10.58,37.42-10.58,52.44h78.69Z"/>
  <path class="st0" d="M2031.27,472.81v145.86c0,65.74-20.68,72.02-35.45,72.02-79.77,0-168.77-289.9-174.3-147.73-2.96,79.04,39.14,113.39,46.16,147.73h-55.03v-146.24c0-65.73,20.69-71.64,35.46-71.64,80.5,0,168.77,289.52,174.3,147.35,2.96-79.03-39.14-113.37-46.16-147.35h55.02Z"/>
  <path class="st0" d="M2264.49,641.59c-16.99,27.33-53.18,49.12-100.82,49.12-171.72,0-156.96-217.88-8.49-217.88,34.34,0,65.36,21.04,103.03,11.07-3.32,9.6-13.67,42.47-17.35,52.44-46.54,0-69.79-73.87-118.54-53.93-83.46,33.98-24.75,216.03,54.29,202.02,40.24-7.02,62.41-33.61,68.32-56.14l19.58,13.3Z"/>
  <path class="st0" d="M2456.26,472.83l-47.64,217.88h-41.36l41.36-107.83c-95.65,87.9-148.83-55.4-148.83-110.05h45.05c0,40.24,26.59,124.44,83.83,114.48,13.65-2.59,24.74-12.56,25.85-30.65,1.47-29.55-21.78-50.6-12.92-83.84,18.1,0,36.19,0,54.67.01Z"/>
</svg>