<?xml version="1.0" encoding="UTF-8"?>
<svg id="Layer_1" xmlns="http://www.w3.org/2000/svg" version="1.1" viewBox="0 0 2556 1179">
  <!-- Generator: Adobe Illustrator 29.8.4, SVG Export Plug-In . SVG Version: 2.1.1 Build 6)  -->
  <defs>
    <style>
      .st0 {
        stroke: #000;
        stroke-miterlimit: 10;
        stroke-width: 7px;
      }
    </style>
  </defs>
  <path class="st0" d="M2062.87,669.28c1.22,15.32-9.61,31.21-25.71,31.98-50.45,2.4-113.81-127.48-139.83-164.93-9.93-14.3-33.16-54.07-49.81-25.96,2.66-18.99,11.17-34.07,32.9-32.13,62.07,5.53,135.48,195.7,167.61,200.02,6.87.92,12.66-2.35,14.83-8.98Z"/>
  <path class="st0" d="M1611.47,701.56h-36.32l-53.37-182.6c-8.41-17.62-22.48-28.61-38.72-11.16,7.25-36.85,55.04-40.54,68.06-3.85l60.35,197.61Z"/>
  <path class="st0" d="M1505.08,675.73c-3,19.45-28.6,31.15-45.81,23.03-29.62-13.97-50.94-145.76-66.78-180.22-5.18-11.26-13.78-22.22-27.49-18.5,9.08-15.71,24.53-29.1,42.15-16.77,28.02,19.61,44.79,142.43,63.32,178.51,7.31,14.23,18.71,23.97,34.62,13.95Z"/>
  <path class="st0" d="M695.97,700.27h-37.62l-58.99-173.13c-7.76-14.13-19.89-31.12-38.31-28.39,31.45-44.36,55.52-8.97,71.16,24.1,26.01,54.95,39.78,121.08,63.75,177.43Z"/>
  <path class="st0" d="M1841.01,700.27h-36.32c-21.68-52.3-33.43-117.93-57.27-168.38-7.52-15.92-19.47-35.47-40.03-33.14,32.23-46.82,57.66-4.32,72.46,27.98,24.71,53.93,39.48,117.93,61.16,173.55Z"/>
  <polygon class="st0" points="92.23 478.09 92.23 699.62 90.28 701.56 58.5 701.56 58.5 478.09 92.23 478.09"/>
  <rect class="st0" x="703.32" y="478.09" width="32.43" height="223.47"/>
  <path class="st0" d="M2133.51,493.61c-48.75,59.19-15.91,166.69,45.4,205.36-111.38-7.14-142-153.14-45.4-205.36Z"/>
  <path class="st0" d="M834.35,697.67c82.85-41.49,81.66-177.19-1.93-217.02,127.87,17.6,129.93,198.47,1.93,217.02Z"/>
  <path class="st0" d="M488.63,489.72l-9.09,34.88c-44.6-10.78-136.56-41.2-179-21.31-20.02,9.38-21.25,32.84-.68,41.99-42.91-11.74-46.32-45.94-1.3-59.46,57.02-17.13,132.05-3.97,190.07,3.9Z"/>
  <path class="st0" d="M2497.5,478.09l-49.95,223.47h-30.49l47.71-124.94c8.83-24.57-15.28-58.5-15.28-77.22v-21.31h48Z"/>
  <path class="st0" d="M2336.64,478.09c2.28,50.84,29.71,127.08,92.1,124.02-77.74,51.52-126.81-63.39-129.72-124.02h37.62Z"/>
  <path class="st0" d="M1136.15,494.9c-49.99,62.01-24.58,165.42,42.8,204.06-106.3-12.43-139.79-152.39-42.8-204.06Z"/>
  <path class="st0" d="M990.85,494.9c-48.43,62.54-24.7,166.3,44.1,204.06-106.7-11.8-140.37-151.28-44.1-204.06Z"/>
  <path class="st0" d="M1260.7,684.77c49.41-62.74,24.4-167.17-44.11-205.37,107.23,13.18,140.47,150.64,44.11,205.37Z"/>
  <path class="st0" d="M486.02,656.36c-1.42,30.15-16.17,32.09-41.72,37.88-53.59,12.15-143.53,15.13-173.63-41.11,64.69,29.74,148.64,24.2,215.35,3.22Z"/>
  <path class="st0" d="M268.09,615c24.96-52.85,107.61-18.18,152.46-15.52,14.76.87,55.8,2.53,43.43-22.58l1.91-.62c12.24,10.9,14.57,30.44,1.31,41.31-39.14,32.08-151.34-28.11-199.12-2.59Z"/>
  <path class="st0" d="M1150.39,656.34l-3.84-1.95c-12.55-11.09-3.86-44.19-5.25-61.94-.69-8.86-3.45-19.35-5.52-28.09-5.57-23.55-16.33-28.79,1.69-53.98,43.13,36.77,47.14,101.32,12.92,145.95Z"/>
  <path class="st0" d="M280.33,698.96c-47.78-12.32-97.06-4.34-145.31-.63,21.46-10.92,40.53-26.03,63.87-33.3,13.59-4.23,51.07-11.66,64.01-8.76,7.79,1.75,12.27,34.8,17.43,42.69Z"/>
  <path class="st0" d="M523.29,700.12l-46.6-.51,47.39-123.36c-.81,42.08,15.93,82.83-.8,123.87Z"/>
  <path class="st0" d="M1621.78,701.55l49.27-126.57c-3.76,41.14,15.37,82.77-1.49,123.14l-47.78,3.43Z"/>
  <path class="st0" d="M1344.23,701.56h-46.7l38.27-124.02c2.58,41.56,21.37,82.46,8.43,124.02Z"/>
  <path class="st0" d="M1890.31,701.56h-46.7v-113.67c6.09,41.77,30.74,75.78,46.7,113.67Z"/>
  <path class="st0" d="M2296.96,492.31l-13.11,42.46c-35.87-4.57-54.65-41.73-85.47-56.66,33.31,2.9,64.66,18.34,98.58,14.2Z"/>
  <path class="st0" d="M2068.04,478.09v111.09c-6.76-40.67-29.94-74.41-46.7-111.09h46.7Z"/>
  <path class="st0" d="M1111.16,490.22c.84.55,2.37,3.45,4.2,4.01l-12.11,9.59-31.97-24.42c9.69,1.34,32.28,5.83,39.87,10.83Z"/>
  <path class="st0" d="M2264.53,687.34c12.75-10.77,23.61-23.29,30.48-38.7l9.17,6.38c1.79,5.07-31.79,32.57-39.65,32.32Z"/>
</svg>