<svg xmlns="http://www.w3.org/2000/svg" xmlns:xlink="http://www.w3.org/1999/xlink" width="1078" zoomAndPan="magnify" viewBox="0 0 808.5 290.999983" height="388" preserveAspectRatio="xMidYMid meet" version="1.0"><defs><g/><clipPath id="ef4c66da0a"><rect x="0" width="726" y="0" height="177"/></clipPath></defs><g transform="matrix(1, 0, 0, 1, 42, 56)"><g clip-path="url(#ef4c66da0a)"><g fill="#000000" fill-opacity="1"><g transform="translate(1.119963, 63.353053)"><g><path d="M 37.390625 -52.6875 C 37.390625 -53.519531 37.15625 -54.238281 36.6875 -54.84375 C 36.21875 -55.445312 35.625 -55.957031 34.90625 -56.375 C 34.1875 -56.789062 33.398438 -57.109375 32.546875 -57.328125 C 31.691406 -57.546875 30.878906 -57.710938 30.109375 -57.828125 C 32.097656 -57.660156 34.03125 -57.257812 35.90625 -56.625 C 37.78125 -55.988281 39.515625 -55.1875 41.109375 -54.21875 C 42.710938 -53.257812 44.132812 -52.171875 45.375 -50.953125 C 46.613281 -49.742188 47.644531 -48.503906 48.46875 -47.234375 C 49.019531 -46.296875 49.445312 -45.367188 49.75 -44.453125 C 50.050781 -43.546875 50.203125 -42.648438 50.203125 -41.765625 C 50.203125 -40.554688 49.96875 -39.414062 49.5 -38.34375 C 49.03125 -37.269531 48.394531 -36.332031 47.59375 -35.53125 C 46.800781 -34.726562 45.863281 -34.09375 44.78125 -33.625 C 43.707031 -33.15625 42.566406 -32.921875 41.359375 -32.921875 C 40.148438 -32.921875 39.003906 -33.15625 37.921875 -33.625 C 36.847656 -34.09375 35.910156 -34.726562 35.109375 -35.53125 C 34.316406 -36.332031 33.6875 -37.269531 33.21875 -38.34375 C 32.75 -39.414062 32.515625 -40.554688 32.515625 -41.765625 C 32.515625 -43.148438 32.757812 -44.296875 33.25 -45.203125 C 33.75 -46.117188 34.285156 -46.945312 34.859375 -47.6875 C 35.441406 -48.425781 35.992188 -49.164062 36.515625 -49.90625 C 37.046875 -50.65625 37.335938 -51.582031 37.390625 -52.6875 Z M 37.46875 -7.609375 C 39.789062 -7.609375 42.082031 -8.117188 44.34375 -9.140625 C 46.601562 -10.160156 48.554688 -11.632812 50.203125 -13.5625 C 47.890625 -9.425781 44.800781 -6.128906 40.9375 -3.671875 C 37.082031 -1.222656 32.8125 0 28.125 0 C 24.539062 0 21.160156 -0.753906 17.984375 -2.265625 C 14.816406 -3.785156 12.046875 -5.851562 9.671875 -8.46875 C 7.304688 -11.09375 5.445312 -14.171875 4.09375 -17.703125 C 2.738281 -21.234375 2.0625 -24.984375 2.0625 -28.953125 C 2.0625 -32.921875 2.738281 -36.671875 4.09375 -40.203125 C 5.445312 -43.734375 7.304688 -46.804688 9.671875 -49.421875 C 12.046875 -52.046875 14.816406 -54.113281 17.984375 -55.625 C 21.160156 -57.144531 24.539062 -57.90625 28.125 -57.90625 C 26.90625 -57.90625 25.703125 -57.285156 24.515625 -56.046875 C 23.335938 -54.804688 22.265625 -53.148438 21.296875 -51.078125 C 20.335938 -49.015625 19.566406 -46.585938 18.984375 -43.796875 C 18.398438 -41.015625 18.109375 -38.109375 18.109375 -35.078125 C 18.109375 -31.265625 18.617188 -27.691406 19.640625 -24.359375 C 20.660156 -21.023438 22.039062 -18.113281 23.78125 -15.625 C 25.519531 -13.144531 27.570312 -11.1875 29.9375 -9.75 C 32.3125 -8.320312 34.820312 -7.609375 37.46875 -7.609375 Z M 37.46875 -7.609375 "/></g></g></g><g fill="#000000" fill-opacity="1"><g transform="translate(55.377624, 63.353053)"><g><path d="M 27.21875 -57.828125 C 24.019531 -57.378906 21.59375 -54.726562 19.9375 -49.875 C 18.28125 -45.019531 17.453125 -38.046875 17.453125 -28.953125 C 17.453125 -19.847656 18.28125 -12.851562 19.9375 -7.96875 C 21.59375 -3.09375 24.019531 -0.4375 27.21875 0 C 23.738281 -0.164062 20.46875 -1.019531 17.40625 -2.5625 C 14.351562 -4.101562 11.679688 -6.179688 9.390625 -8.796875 C 7.097656 -11.421875 5.300781 -14.457031 4 -17.90625 C 2.707031 -21.351562 2.0625 -25.035156 2.0625 -28.953125 C 2.0625 -32.867188 2.707031 -36.550781 4 -40 C 5.300781 -43.445312 7.097656 -46.460938 9.390625 -49.046875 C 11.679688 -51.640625 14.351562 -53.722656 17.40625 -55.296875 C 20.46875 -56.867188 23.738281 -57.710938 27.21875 -57.828125 Z M 29.03125 -57.828125 C 32.507812 -57.710938 35.773438 -56.867188 38.828125 -55.296875 C 41.890625 -53.722656 44.566406 -51.640625 46.859375 -49.046875 C 49.148438 -46.460938 50.941406 -43.445312 52.234375 -40 C 53.535156 -36.550781 54.1875 -32.867188 54.1875 -28.953125 C 54.1875 -25.035156 53.535156 -21.351562 52.234375 -17.90625 C 50.941406 -14.457031 49.148438 -11.421875 46.859375 -8.796875 C 44.566406 -6.179688 41.890625 -4.101562 38.828125 -2.5625 C 35.773438 -1.019531 32.507812 -0.164062 29.03125 0 C 32.226562 -0.4375 34.65625 -3.09375 36.3125 -7.96875 C 37.96875 -12.851562 38.796875 -19.847656 38.796875 -28.953125 C 38.796875 -38.046875 37.96875 -45.019531 36.3125 -49.875 C 34.65625 -54.726562 32.226562 -57.378906 29.03125 -57.828125 Z M 29.03125 -57.828125 "/></g></g></g><g fill="#000000" fill-opacity="1"><g transform="translate(111.951046, 63.353053)"><g><path d="M 38.21875 -26.71875 C 39.375 -25.5625 40.363281 -24.054688 41.1875 -22.203125 C 42.019531 -20.359375 42.78125 -18.398438 43.46875 -16.328125 C 44.15625 -14.265625 44.859375 -12.1875 45.578125 -10.09375 C 46.296875 -8 47.082031 -6.164062 47.9375 -4.59375 C 48.789062 -3.019531 49.78125 -1.773438 50.90625 -0.859375 C 52.039062 0.046875 53.410156 0.332031 55.015625 0 C 53.960938 1.101562 52.5 1.941406 50.625 2.515625 C 48.75 3.097656 46.707031 3.414062 44.5 3.46875 C 41.351562 3.46875 38.742188 2.664062 36.671875 1.0625 C 34.609375 -0.53125 32.914062 -2.539062 31.59375 -4.96875 C 30.269531 -7.394531 29.207031 -10.015625 28.40625 -12.828125 C 27.613281 -15.640625 26.910156 -18.253906 26.296875 -20.671875 C 25.691406 -23.097656 25.070312 -25.125 24.4375 -26.75 C 23.800781 -28.382812 22.988281 -29.203125 22 -29.203125 L 27.046875 -29.203125 C 28.265625 -29.203125 29.410156 -29.570312 30.484375 -30.3125 C 31.554688 -31.0625 32.492188 -32.066406 33.296875 -33.328125 C 34.097656 -34.597656 34.734375 -36.085938 35.203125 -37.796875 C 35.671875 -39.503906 35.90625 -41.351562 35.90625 -43.34375 C 35.90625 -45.269531 35.671875 -47.113281 35.203125 -48.875 C 34.734375 -50.644531 34.097656 -52.191406 33.296875 -53.515625 C 32.492188 -54.835938 31.554688 -55.898438 30.484375 -56.703125 C 29.410156 -57.503906 28.265625 -57.90625 27.046875 -57.90625 L 34.984375 -57.90625 C 37.140625 -57.90625 39.15625 -57.53125 41.03125 -56.78125 C 42.90625 -56.039062 44.546875 -55.007812 45.953125 -53.6875 C 47.359375 -52.363281 48.472656 -50.816406 49.296875 -49.046875 C 50.128906 -47.285156 50.546875 -45.410156 50.546875 -43.421875 C 50.546875 -41.441406 50.128906 -39.566406 49.296875 -37.796875 C 48.472656 -36.035156 47.359375 -34.492188 45.953125 -33.171875 C 44.546875 -31.847656 42.90625 -30.8125 41.03125 -30.0625 C 39.15625 -29.320312 37.140625 -28.953125 34.984375 -28.953125 L 33.75 -28.953125 C 34.1875 -28.953125 34.679688 -28.84375 35.234375 -28.625 C 35.679688 -28.457031 36.164062 -28.222656 36.6875 -27.921875 C 37.207031 -27.617188 37.71875 -27.21875 38.21875 -26.71875 Z M 21.59375 -5.453125 C 21.59375 -4.078125 22.070312 -2.820312 23.03125 -1.6875 C 24 -0.5625 25.203125 0 26.640625 0 L 2.0625 0 C 3.445312 0 4.617188 -0.5625 5.578125 -1.6875 C 6.546875 -2.820312 7.03125 -4.078125 7.03125 -5.453125 L 7.03125 -52.4375 C 7.03125 -53.820312 6.546875 -55.078125 5.578125 -56.203125 C 4.617188 -57.335938 3.445312 -57.90625 2.0625 -57.90625 L 21.59375 -57.90625 Z M 21.59375 -5.453125 "/></g></g></g><g fill="#000000" fill-opacity="1"><g transform="translate(168.524412, 63.353053)"><g><path d="M 34.25 -5.453125 C 34.25 -4.078125 34.726562 -2.820312 35.6875 -1.6875 C 36.65625 -0.5625 37.828125 0 39.203125 0 L 14.640625 0 C 16.078125 0 17.265625 -0.5625 18.203125 -1.6875 C 19.140625 -2.820312 19.609375 -4.078125 19.609375 -5.453125 L 19.609375 -57.90625 L 34.25 -57.90625 Z M 17.78125 -57.90625 C 15.6875 -57.6875 13.796875 -57.132812 12.109375 -56.25 C 10.429688 -55.363281 8.929688 -54.21875 7.609375 -52.8125 C 6.285156 -51.40625 5.164062 -49.804688 4.25 -48.015625 C 3.34375 -46.222656 2.613281 -44.304688 2.0625 -42.265625 L 2.0625 -57.90625 Z M 51.78125 -57.90625 L 51.78125 -42.265625 C 51.28125 -44.304688 50.5625 -46.222656 49.625 -48.015625 C 48.6875 -49.804688 47.570312 -51.40625 46.28125 -52.8125 C 44.988281 -54.21875 43.484375 -55.363281 41.765625 -56.25 C 40.054688 -57.132812 38.179688 -57.6875 36.140625 -57.90625 Z M 51.78125 -57.90625 "/></g></g></g><g fill="#000000" fill-opacity="1"><g transform="translate(224.353548, 63.353053)"><g><path d="M 21.59375 -57.40625 L 21.59375 0 L 2.0625 0 C 3.445312 0 4.617188 -0.5625 5.578125 -1.6875 C 6.546875 -2.820312 7.03125 -4.078125 7.03125 -5.453125 L 7.03125 -52.4375 C 7.03125 -53.820312 6.546875 -55.078125 5.578125 -56.203125 C 4.617188 -57.335938 3.445312 -57.90625 2.0625 -57.90625 L 21.59375 -57.90625 Z M 22.421875 -57.90625 L 42.515625 -57.90625 L 42.515625 -42.265625 C 41.960938 -44.421875 41.035156 -46.445312 39.734375 -48.34375 C 38.441406 -50.25 36.914062 -51.90625 35.15625 -53.3125 C 33.394531 -54.71875 31.421875 -55.832031 29.234375 -56.65625 C 27.054688 -57.488281 24.785156 -57.90625 22.421875 -57.90625 Z M 22.421875 0 C 24.785156 0 27.054688 -0.398438 29.234375 -1.203125 C 31.421875 -2.003906 33.394531 -3.109375 35.15625 -4.515625 C 36.914062 -5.921875 38.441406 -7.570312 39.734375 -9.46875 C 41.035156 -11.375 41.960938 -13.398438 42.515625 -15.546875 L 42.515625 0 Z M 21.59375 -28.953125 C 23.082031 -28.953125 24.539062 -28.6875 25.96875 -28.15625 C 27.40625 -27.632812 28.703125 -26.929688 29.859375 -26.046875 C 31.015625 -25.171875 32.003906 -24.125 32.828125 -22.90625 C 33.660156 -21.695312 34.269531 -20.40625 34.65625 -19.03125 L 34.65625 -38.875 C 34.269531 -37.5 33.660156 -36.203125 32.828125 -34.984375 C 32.003906 -33.773438 31.015625 -32.726562 29.859375 -31.84375 C 28.703125 -30.957031 27.40625 -30.253906 25.96875 -29.734375 C 24.539062 -29.210938 23.082031 -28.953125 21.59375 -28.953125 Z M 21.59375 -28.953125 "/></g></g></g><g fill="#000000" fill-opacity="1"><g transform="translate(270.919224, 63.353053)"><g><path d="M 45.171875 -15.96875 C 45.328125 -13.757812 44.878906 -11.703125 43.828125 -9.796875 C 42.785156 -7.898438 41.300781 -6.234375 39.375 -4.796875 C 37.445312 -3.359375 35.171875 -2.210938 32.546875 -1.359375 C 29.929688 -0.503906 27.1875 -0.0507812 24.3125 0 C 25.3125 -0.113281 26.265625 -0.414062 27.171875 -0.90625 C 28.078125 -1.40625 28.890625 -2.023438 29.609375 -2.765625 C 30.328125 -3.515625 30.890625 -4.367188 31.296875 -5.328125 C 31.710938 -6.296875 31.921875 -7.304688 31.921875 -8.359375 C 31.921875 -10.453125 31.191406 -12.4375 29.734375 -14.3125 C 28.273438 -16.1875 26.425781 -18.019531 24.1875 -19.8125 C 21.957031 -21.601562 19.5625 -23.40625 17 -25.21875 C 14.4375 -27.039062 12.035156 -28.945312 9.796875 -30.9375 C 7.566406 -32.925781 5.71875 -35.019531 4.25 -37.21875 C 2.789062 -39.425781 2.0625 -41.828125 2.0625 -44.421875 C 2.0625 -46.898438 2.738281 -48.992188 4.09375 -50.703125 C 5.445312 -52.410156 7.15625 -53.800781 9.21875 -54.875 C 11.289062 -55.957031 13.550781 -56.734375 16 -57.203125 C 18.457031 -57.671875 20.816406 -57.90625 23.078125 -57.90625 L 24.3125 -57.90625 C 22.382812 -57.738281 20.675781 -57.019531 19.1875 -55.75 C 17.695312 -54.476562 16.867188 -52.6875 16.703125 -50.375 C 16.546875 -48.226562 17.113281 -46.242188 18.40625 -44.421875 C 19.695312 -42.597656 21.347656 -40.84375 23.359375 -39.15625 C 25.378906 -37.476562 27.613281 -35.8125 30.0625 -34.15625 C 32.519531 -32.507812 34.820312 -30.757812 36.96875 -28.90625 C 39.125 -27.0625 40.972656 -25.09375 42.515625 -23 C 44.054688 -20.90625 44.941406 -18.5625 45.171875 -15.96875 Z M 41.4375 -42.265625 C 41.113281 -43.921875 40.519531 -45.601562 39.65625 -47.3125 C 38.800781 -49.019531 37.726562 -50.617188 36.4375 -52.109375 C 35.144531 -53.597656 33.65625 -54.851562 31.96875 -55.875 C 30.289062 -56.894531 28.457031 -57.515625 26.46875 -57.734375 C 28.226562 -57.566406 29.894531 -57.359375 31.46875 -57.109375 C 33.039062 -56.867188 34.710938 -56.75 36.484375 -56.75 C 37.421875 -56.75 38.34375 -56.828125 39.25 -56.984375 C 40.15625 -57.148438 40.882812 -57.457031 41.4375 -57.90625 Z M 14.890625 -3.96875 C 15.054688 -3.03125 15.769531 -2.160156 17.03125 -1.359375 C 18.300781 -0.566406 20.097656 -0.113281 22.421875 0 C 19.609375 -0.113281 16.972656 -0.554688 14.515625 -1.328125 C 12.066406 -2.097656 9.914062 -3.113281 8.0625 -4.375 C 6.21875 -5.644531 4.753906 -7.117188 3.671875 -8.796875 C 2.597656 -10.484375 2.0625 -12.320312 2.0625 -14.3125 C 2.0625 -15.519531 2.296875 -16.660156 2.765625 -17.734375 C 3.234375 -18.816406 3.867188 -19.753906 4.671875 -20.546875 C 5.472656 -21.347656 6.410156 -21.984375 7.484375 -22.453125 C 8.554688 -22.921875 9.703125 -23.15625 10.921875 -23.15625 C 12.128906 -23.15625 13.269531 -22.921875 14.34375 -22.453125 C 15.425781 -21.984375 16.363281 -21.347656 17.15625 -20.546875 C 17.957031 -19.753906 18.59375 -18.816406 19.0625 -17.734375 C 19.53125 -16.660156 19.765625 -15.519531 19.765625 -14.3125 C 19.765625 -13.09375 19.53125 -11.929688 19.0625 -10.828125 C 18.59375 -9.734375 17.972656 -8.800781 17.203125 -8.03125 C 16.316406 -7.09375 15.679688 -6.375 15.296875 -5.875 C 14.910156 -5.375 14.773438 -4.738281 14.890625 -3.96875 Z M 14.890625 -3.96875 "/></g></g></g><g fill="#000000" fill-opacity="1"><g transform="translate(319.387164, 63.353053)"><g><path d="M 21.59375 -5.453125 C 21.59375 -4.078125 22.070312 -2.820312 23.03125 -1.6875 C 24 -0.5625 25.203125 0 26.640625 0 L 2.0625 0 C 3.445312 0 4.617188 -0.5625 5.578125 -1.6875 C 6.546875 -2.820312 7.03125 -4.078125 7.03125 -5.453125 L 7.03125 -52.4375 C 7.03125 -53.820312 6.546875 -55.078125 5.578125 -56.203125 C 4.617188 -57.335938 3.445312 -57.90625 2.0625 -57.90625 L 26.640625 -57.90625 C 25.203125 -57.90625 24 -57.335938 23.03125 -56.203125 C 22.070312 -55.078125 21.59375 -53.820312 21.59375 -52.4375 Z M 21.59375 -5.453125 "/></g></g></g><g fill="#000000" fill-opacity="1"><g transform="translate(350.074314, 63.353053)"><g/></g></g><g fill="#000000" fill-opacity="1"><g transform="translate(364.052489, 63.353053)"><g/></g></g><g fill="#000000" fill-opacity="1"><g transform="translate(378.030663, 63.353053)"><g/></g></g><g fill="#000000" fill-opacity="1"><g transform="translate(392.013644, 63.353053)"><g><path d="M 22.421875 0 C 24.785156 0 27.054688 -0.398438 29.234375 -1.203125 C 31.421875 -2.003906 33.394531 -3.109375 35.15625 -4.515625 C 36.914062 -5.921875 38.441406 -7.570312 39.734375 -9.46875 C 41.035156 -11.375 41.960938 -13.398438 42.515625 -15.546875 L 42.515625 0 Z M 26.640625 -57.90625 C 25.203125 -57.90625 24 -57.335938 23.03125 -56.203125 C 22.070312 -55.078125 21.59375 -53.820312 21.59375 -52.4375 L 21.59375 0 L 2.0625 0 C 3.445312 0 4.617188 -0.5625 5.578125 -1.6875 C 6.546875 -2.820312 7.03125 -4.078125 7.03125 -5.453125 L 7.03125 -52.4375 C 7.03125 -53.820312 6.546875 -55.078125 5.578125 -56.203125 C 4.617188 -57.335938 3.445312 -57.90625 2.0625 -57.90625 Z M 26.640625 -57.90625 "/></g></g></g><g fill="#000000" fill-opacity="1"><g transform="translate(436.09789, 63.353053)"><g><path d="M 21.59375 -57.90625 L 26.640625 -57.90625 C 25.203125 -57.90625 24 -57.335938 23.03125 -56.203125 C 22.070312 -55.078125 21.59375 -53.820312 21.59375 -52.4375 L 21.59375 -16.125 C 21.59375 -15.132812 21.257812 -14.265625 20.59375 -13.515625 C 19.9375 -12.773438 19.207031 -12.046875 18.40625 -11.328125 C 17.601562 -10.609375 16.867188 -9.863281 16.203125 -9.09375 C 15.546875 -8.320312 15.21875 -7.382812 15.21875 -6.28125 C 15.21875 -4.851562 15.90625 -3.628906 17.28125 -2.609375 C 18.664062 -1.585938 20.210938 -0.851562 21.921875 -0.40625 C 19.765625 -0.90625 17.773438 -1.71875 15.953125 -2.84375 C 14.140625 -3.976562 12.570312 -5.375 11.25 -7.03125 C 9.925781 -8.6875 8.890625 -10.535156 8.140625 -12.578125 C 7.398438 -14.617188 7.03125 -16.769531 7.03125 -19.03125 L 7.03125 -52.4375 C 7.03125 -53.820312 6.546875 -55.078125 5.578125 -56.203125 C 4.617188 -57.335938 3.445312 -57.90625 2.0625 -57.90625 Z M 53.1875 -57.90625 C 51.863281 -57.90625 50.59375 -57.613281 49.375 -57.03125 C 48.164062 -56.457031 47.101562 -55.6875 46.1875 -54.71875 C 45.28125 -53.75 44.566406 -52.628906 44.046875 -51.359375 C 43.523438 -50.097656 43.265625 -48.804688 43.265625 -47.484375 C 43.265625 -48.804688 42.988281 -50.097656 42.4375 -51.359375 C 41.882812 -52.628906 41.148438 -53.75 40.234375 -54.71875 C 39.328125 -55.6875 38.265625 -56.457031 37.046875 -57.03125 C 35.835938 -57.613281 34.570312 -57.90625 33.25 -57.90625 Z M 53.1875 -57.90625 "/></g></g></g><g fill="#000000" fill-opacity="1"><g transform="translate(493.33308, 63.353053)"><g><path d="M 42.4375 -49.21875 C 42.4375 -51.363281 41.757812 -53.234375 40.40625 -54.828125 C 39.050781 -56.429688 37.359375 -57.457031 35.328125 -57.90625 L 57.40625 -57.90625 C 55.8125 -57.6875 54.253906 -57.175781 52.734375 -56.375 C 51.210938 -55.570312 49.765625 -54.578125 48.390625 -53.390625 C 47.015625 -52.203125 45.734375 -50.878906 44.546875 -49.421875 C 43.359375 -47.960938 42.320312 -46.460938 41.4375 -44.921875 C 42.101562 -46.128906 42.4375 -47.5625 42.4375 -49.21875 Z M 41.4375 -44.921875 C 41.4375 -44.921875 41.382812 -44.804688 41.28125 -44.578125 C 41.382812 -44.804688 41.4375 -44.921875 41.4375 -44.921875 Z M 17.046875 -8.6875 C 17.046875 -6.53125 17.71875 -4.648438 19.0625 -3.046875 C 20.414062 -1.453125 22.113281 -0.4375 24.15625 0 L 2.0625 0 C 3.613281 -0.21875 5.160156 -0.726562 6.703125 -1.53125 C 8.242188 -2.332031 9.703125 -3.320312 11.078125 -4.5 C 12.460938 -5.6875 13.742188 -7.007812 14.921875 -8.46875 C 16.109375 -9.9375 17.144531 -11.441406 18.03125 -12.984375 C 17.375 -11.710938 17.046875 -10.28125 17.046875 -8.6875 Z M 18.03125 -12.984375 C 18.144531 -13.097656 18.203125 -13.207031 18.203125 -13.3125 C 18.203125 -13.207031 18.144531 -13.097656 18.03125 -12.984375 Z M 51.609375 -5.046875 C 52.160156 -3.992188 52.988281 -2.929688 54.09375 -1.859375 C 55.195312 -0.785156 56.300781 -0.164062 57.40625 0 L 31.4375 0 C 32.425781 -0.0507812 33.25 -0.503906 33.90625 -1.359375 C 34.570312 -2.210938 34.90625 -3.109375 34.90625 -4.046875 C 34.90625 -4.710938 34.710938 -5.347656 34.328125 -5.953125 L 7.859375 -52.859375 C 7.578125 -53.359375 7.21875 -53.894531 6.78125 -54.46875 C 6.34375 -55.050781 5.875 -55.578125 5.375 -56.046875 C 4.875 -56.515625 4.332031 -56.910156 3.75 -57.234375 C 3.175781 -57.566406 2.613281 -57.789062 2.0625 -57.90625 L 28.046875 -57.90625 C 27.109375 -57.851562 26.289062 -57.394531 25.59375 -56.53125 C 24.90625 -55.675781 24.5625 -54.78125 24.5625 -53.84375 C 24.5625 -53.238281 24.753906 -52.609375 25.140625 -51.953125 Z M 51.609375 -5.046875 "/></g></g></g><g fill="#000000" fill-opacity="1"><g transform="translate(554.78646, 63.353053)"><g><path d="M 21.59375 -57.90625 L 26.640625 -57.90625 C 25.203125 -57.90625 24 -57.335938 23.03125 -56.203125 C 22.070312 -55.078125 21.59375 -53.820312 21.59375 -52.4375 L 21.59375 -16.125 C 21.59375 -15.132812 21.257812 -14.265625 20.59375 -13.515625 C 19.9375 -12.773438 19.207031 -12.046875 18.40625 -11.328125 C 17.601562 -10.609375 16.867188 -9.863281 16.203125 -9.09375 C 15.546875 -8.320312 15.21875 -7.382812 15.21875 -6.28125 C 15.21875 -4.851562 15.90625 -3.628906 17.28125 -2.609375 C 18.664062 -1.585938 20.210938 -0.851562 21.921875 -0.40625 C 19.765625 -0.90625 17.773438 -1.71875 15.953125 -2.84375 C 14.140625 -3.976562 12.570312 -5.375 11.25 -7.03125 C 9.925781 -8.6875 8.890625 -10.535156 8.140625 -12.578125 C 7.398438 -14.617188 7.03125 -16.769531 7.03125 -19.03125 L 7.03125 -52.4375 C 7.03125 -53.820312 6.546875 -55.078125 5.578125 -56.203125 C 4.617188 -57.335938 3.445312 -57.90625 2.0625 -57.90625 Z M 53.1875 -57.90625 C 51.863281 -57.90625 50.59375 -57.613281 49.375 -57.03125 C 48.164062 -56.457031 47.101562 -55.6875 46.1875 -54.71875 C 45.28125 -53.75 44.566406 -52.628906 44.046875 -51.359375 C 43.523438 -50.097656 43.265625 -48.804688 43.265625 -47.484375 C 43.265625 -48.804688 42.988281 -50.097656 42.4375 -51.359375 C 41.882812 -52.628906 41.148438 -53.75 40.234375 -54.71875 C 39.328125 -55.6875 38.265625 -56.457031 37.046875 -57.03125 C 35.835938 -57.613281 34.570312 -57.90625 33.25 -57.90625 Z M 53.1875 -57.90625 "/></g></g></g><g fill="#000000" fill-opacity="1"><g transform="translate(610.367367, 63.353053)"><g><path d="M 38.21875 -26.71875 C 39.375 -25.5625 40.363281 -24.054688 41.1875 -22.203125 C 42.019531 -20.359375 42.78125 -18.398438 43.46875 -16.328125 C 44.15625 -14.265625 44.859375 -12.1875 45.578125 -10.09375 C 46.296875 -8 47.082031 -6.164062 47.9375 -4.59375 C 48.789062 -3.019531 49.78125 -1.773438 50.90625 -0.859375 C 52.039062 0.046875 53.410156 0.332031 55.015625 0 C 53.960938 1.101562 52.5 1.941406 50.625 2.515625 C 48.75 3.097656 46.707031 3.414062 44.5 3.46875 C 41.351562 3.46875 38.742188 2.664062 36.671875 1.0625 C 34.609375 -0.53125 32.914062 -2.539062 31.59375 -4.96875 C 30.269531 -7.394531 29.207031 -10.015625 28.40625 -12.828125 C 27.613281 -15.640625 26.910156 -18.253906 26.296875 -20.671875 C 25.691406 -23.097656 25.070312 -25.125 24.4375 -26.75 C 23.800781 -28.382812 22.988281 -29.203125 22 -29.203125 L 27.046875 -29.203125 C 28.265625 -29.203125 29.410156 -29.570312 30.484375 -30.3125 C 31.554688 -31.0625 32.492188 -32.066406 33.296875 -33.328125 C 34.097656 -34.597656 34.734375 -36.085938 35.203125 -37.796875 C 35.671875 -39.503906 35.90625 -41.351562 35.90625 -43.34375 C 35.90625 -45.269531 35.671875 -47.113281 35.203125 -48.875 C 34.734375 -50.644531 34.097656 -52.191406 33.296875 -53.515625 C 32.492188 -54.835938 31.554688 -55.898438 30.484375 -56.703125 C 29.410156 -57.503906 28.265625 -57.90625 27.046875 -57.90625 L 34.984375 -57.90625 C 37.140625 -57.90625 39.15625 -57.53125 41.03125 -56.78125 C 42.90625 -56.039062 44.546875 -55.007812 45.953125 -53.6875 C 47.359375 -52.363281 48.472656 -50.816406 49.296875 -49.046875 C 50.128906 -47.285156 50.546875 -45.410156 50.546875 -43.421875 C 50.546875 -41.441406 50.128906 -39.566406 49.296875 -37.796875 C 48.472656 -36.035156 47.359375 -34.492188 45.953125 -33.171875 C 44.546875 -31.847656 42.90625 -30.8125 41.03125 -30.0625 C 39.15625 -29.320312 37.140625 -28.953125 34.984375 -28.953125 L 33.75 -28.953125 C 34.1875 -28.953125 34.679688 -28.84375 35.234375 -28.625 C 35.679688 -28.457031 36.164062 -28.222656 36.6875 -27.921875 C 37.207031 -27.617188 37.71875 -27.21875 38.21875 -26.71875 Z M 21.59375 -5.453125 C 21.59375 -4.078125 22.070312 -2.820312 23.03125 -1.6875 C 24 -0.5625 25.203125 0 26.640625 0 L 2.0625 0 C 3.445312 0 4.617188 -0.5625 5.578125 -1.6875 C 6.546875 -2.820312 7.03125 -4.078125 7.03125 -5.453125 L 7.03125 -52.4375 C 7.03125 -53.820312 6.546875 -55.078125 5.578125 -56.203125 C 4.617188 -57.335938 3.445312 -57.90625 2.0625 -57.90625 L 21.59375 -57.90625 Z M 21.59375 -5.453125 "/></g></g></g><g fill="#000000" fill-opacity="1"><g transform="translate(661.977859, 63.353053)"><g><path d="M 35.984375 -5.453125 C 35.984375 -4.078125 36.460938 -2.820312 37.421875 -1.6875 C 38.390625 -0.5625 39.566406 0 40.953125 0 L 16.375 0 C 17.757812 0 18.929688 -0.5625 19.890625 -1.6875 C 20.859375 -2.820312 21.34375 -4.078125 21.34375 -5.453125 L 21.34375 -28.953125 L 7.859375 -52.859375 C 7.578125 -53.359375 7.21875 -53.894531 6.78125 -54.46875 C 6.34375 -55.050781 5.875 -55.578125 5.375 -56.046875 C 4.875 -56.515625 4.332031 -56.910156 3.75 -57.234375 C 3.175781 -57.566406 2.613281 -57.789062 2.0625 -57.90625 L 28.046875 -57.90625 C 27.109375 -57.851562 26.289062 -57.394531 25.59375 -56.53125 C 24.90625 -55.675781 24.5625 -54.78125 24.5625 -53.84375 C 24.5625 -53.238281 24.753906 -52.609375 25.140625 -51.953125 L 35.984375 -32.84375 Z M 43.84375 -49.21875 C 43.84375 -51.363281 43.164062 -53.234375 41.8125 -54.828125 C 40.457031 -56.429688 38.734375 -57.457031 36.640625 -57.90625 L 58.8125 -57.90625 C 57.21875 -57.6875 55.660156 -57.175781 54.140625 -56.375 C 52.617188 -55.570312 51.171875 -54.578125 49.796875 -53.390625 C 48.421875 -52.203125 47.140625 -50.878906 45.953125 -49.421875 C 44.765625 -47.960938 43.726562 -46.460938 42.84375 -44.921875 C 43.507812 -46.128906 43.84375 -47.5625 43.84375 -49.21875 Z M 43.84375 -49.21875 "/></g></g></g><g fill="#000000" fill-opacity="1"><g transform="translate(93.056826, 156.219709)"><g><path d="M 38.21875 -26.71875 C 39.375 -25.5625 40.363281 -24.054688 41.1875 -22.203125 C 42.019531 -20.359375 42.78125 -18.398438 43.46875 -16.328125 C 44.15625 -14.265625 44.859375 -12.1875 45.578125 -10.09375 C 46.296875 -8 47.082031 -6.164062 47.9375 -4.59375 C 48.789062 -3.019531 49.78125 -1.773438 50.90625 -0.859375 C 52.039062 0.046875 53.410156 0.332031 55.015625 0 C 53.960938 1.101562 52.5 1.941406 50.625 2.515625 C 48.75 3.097656 46.707031 3.414062 44.5 3.46875 C 41.351562 3.46875 38.742188 2.664062 36.671875 1.0625 C 34.609375 -0.53125 32.914062 -2.539062 31.59375 -4.96875 C 30.269531 -7.394531 29.207031 -10.015625 28.40625 -12.828125 C 27.613281 -15.640625 26.910156 -18.253906 26.296875 -20.671875 C 25.691406 -23.097656 25.070312 -25.125 24.4375 -26.75 C 23.800781 -28.382812 22.988281 -29.203125 22 -29.203125 L 27.046875 -29.203125 C 28.265625 -29.203125 29.410156 -29.570312 30.484375 -30.3125 C 31.554688 -31.0625 32.492188 -32.066406 33.296875 -33.328125 C 34.097656 -34.597656 34.734375 -36.085938 35.203125 -37.796875 C 35.671875 -39.503906 35.90625 -41.351562 35.90625 -43.34375 C 35.90625 -45.269531 35.671875 -47.113281 35.203125 -48.875 C 34.734375 -50.644531 34.097656 -52.191406 33.296875 -53.515625 C 32.492188 -54.835938 31.554688 -55.898438 30.484375 -56.703125 C 29.410156 -57.503906 28.265625 -57.90625 27.046875 -57.90625 L 34.984375 -57.90625 C 37.140625 -57.90625 39.15625 -57.53125 41.03125 -56.78125 C 42.90625 -56.039062 44.546875 -55.007812 45.953125 -53.6875 C 47.359375 -52.363281 48.472656 -50.816406 49.296875 -49.046875 C 50.128906 -47.285156 50.546875 -45.410156 50.546875 -43.421875 C 50.546875 -41.441406 50.128906 -39.566406 49.296875 -37.796875 C 48.472656 -36.035156 47.359375 -34.492188 45.953125 -33.171875 C 44.546875 -31.847656 42.90625 -30.8125 41.03125 -30.0625 C 39.15625 -29.320312 37.140625 -28.953125 34.984375 -28.953125 L 33.75 -28.953125 C 34.1875 -28.953125 34.679688 -28.84375 35.234375 -28.625 C 35.679688 -28.457031 36.164062 -28.222656 36.6875 -27.921875 C 37.207031 -27.617188 37.71875 -27.21875 38.21875 -26.71875 Z M 21.59375 -5.453125 C 21.59375 -4.078125 22.070312 -2.820312 23.03125 -1.6875 C 24 -0.5625 25.203125 0 26.640625 0 L 2.0625 0 C 3.445312 0 4.617188 -0.5625 5.578125 -1.6875 C 6.546875 -2.820312 7.03125 -4.078125 7.03125 -5.453125 L 7.03125 -52.4375 C 7.03125 -53.820312 6.546875 -55.078125 5.578125 -56.203125 C 4.617188 -57.335938 3.445312 -57.90625 2.0625 -57.90625 L 21.59375 -57.90625 Z M 21.59375 -5.453125 "/></g></g></g><g fill="#000000" fill-opacity="1"><g transform="translate(151.284476, 156.219709)"><g><path d="M 21.59375 -57.40625 L 21.59375 0 L 2.0625 0 C 3.445312 0 4.617188 -0.5625 5.578125 -1.6875 C 6.546875 -2.820312 7.03125 -4.078125 7.03125 -5.453125 L 7.03125 -52.4375 C 7.03125 -53.820312 6.546875 -55.078125 5.578125 -56.203125 C 4.617188 -57.335938 3.445312 -57.90625 2.0625 -57.90625 L 21.59375 -57.90625 Z M 22.421875 -57.90625 L 42.515625 -57.90625 L 42.515625 -42.265625 C 41.960938 -44.421875 41.035156 -46.445312 39.734375 -48.34375 C 38.441406 -50.25 36.914062 -51.90625 35.15625 -53.3125 C 33.394531 -54.71875 31.421875 -55.832031 29.234375 -56.65625 C 27.054688 -57.488281 24.785156 -57.90625 22.421875 -57.90625 Z M 22.421875 0 C 24.785156 0 27.054688 -0.398438 29.234375 -1.203125 C 31.421875 -2.003906 33.394531 -3.109375 35.15625 -4.515625 C 36.914062 -5.921875 38.441406 -7.570312 39.734375 -9.46875 C 41.035156 -11.375 41.960938 -13.398438 42.515625 -15.546875 L 42.515625 0 Z M 21.59375 -28.953125 C 23.082031 -28.953125 24.539062 -28.6875 25.96875 -28.15625 C 27.40625 -27.632812 28.703125 -26.929688 29.859375 -26.046875 C 31.015625 -25.171875 32.003906 -24.125 32.828125 -22.90625 C 33.660156 -21.695312 34.269531 -20.40625 34.65625 -19.03125 L 34.65625 -38.875 C 34.269531 -37.5 33.660156 -36.203125 32.828125 -34.984375 C 32.003906 -33.773438 31.015625 -32.726562 29.859375 -31.84375 C 28.703125 -30.957031 27.40625 -30.253906 25.96875 -29.734375 C 24.539062 -29.210938 23.082031 -28.953125 21.59375 -28.953125 Z M 21.59375 -28.953125 "/></g></g></g><g fill="#000000" fill-opacity="1"><g transform="translate(197.850152, 156.219709)"><g><path d="M 13.234375 -9.1875 C 13.234375 -7.914062 13.46875 -6.710938 13.9375 -5.578125 C 14.40625 -4.453125 15.050781 -3.472656 15.875 -2.640625 C 16.707031 -1.816406 17.675781 -1.171875 18.78125 -0.703125 C 19.882812 -0.234375 21.066406 0 22.328125 0 L 2.0625 0 C 3.28125 -0.164062 4.453125 -0.550781 5.578125 -1.15625 C 6.710938 -1.757812 7.773438 -2.515625 8.765625 -3.421875 C 9.753906 -4.335938 10.632812 -5.347656 11.40625 -6.453125 C 12.1875 -7.554688 12.796875 -8.6875 13.234375 -9.84375 Z M 29.109375 0 C 30.273438 0 31.269531 -0.476562 32.09375 -1.4375 C 32.914062 -2.40625 33.328125 -3.5 33.328125 -4.71875 C 33.328125 -4.9375 33.328125 -5.15625 33.328125 -5.375 C 33.328125 -5.59375 33.273438 -5.8125 33.171875 -6.03125 L 30.765625 -12.984375 L 30.609375 -13.484375 L 24.734375 -30.4375 C 24.347656 -31.375 23.660156 -31.84375 22.671875 -31.84375 C 21.734375 -31.84375 21.070312 -31.375 20.6875 -30.4375 L 30.609375 -57.90625 L 39.78125 -31.515625 C 40.164062 -30.410156 40.609375 -29.097656 41.109375 -27.578125 C 41.609375 -26.066406 42.050781 -24.757812 42.4375 -23.65625 L 49.21875 -4.296875 C 49.601562 -3.191406 50.273438 -2.195312 51.234375 -1.3125 C 52.203125 -0.4375 53.320312 0 54.59375 0 Z M 29.109375 0 "/></g></g></g><g fill="#000000" fill-opacity="1"><g transform="translate(256.49141, 156.219709)"><g><path d="M 22.421875 0 C 24.785156 0 27.054688 -0.398438 29.234375 -1.203125 C 31.421875 -2.003906 33.394531 -3.109375 35.15625 -4.515625 C 36.914062 -5.921875 38.441406 -7.570312 39.734375 -9.46875 C 41.035156 -11.375 41.960938 -13.398438 42.515625 -15.546875 L 42.515625 0 Z M 26.640625 -57.90625 C 25.203125 -57.90625 24 -57.335938 23.03125 -56.203125 C 22.070312 -55.078125 21.59375 -53.820312 21.59375 -52.4375 L 21.59375 0 L 2.0625 0 C 3.445312 0 4.617188 -0.5625 5.578125 -1.6875 C 6.546875 -2.820312 7.03125 -4.078125 7.03125 -5.453125 L 7.03125 -52.4375 C 7.03125 -53.820312 6.546875 -55.078125 5.578125 -56.203125 C 4.617188 -57.335938 3.445312 -57.90625 2.0625 -57.90625 Z M 26.640625 -57.90625 "/></g></g></g><g fill="#000000" fill-opacity="1"><g transform="translate(303.063391, 156.219709)"><g/></g></g><g fill="#000000" fill-opacity="1"><g transform="translate(317.041566, 156.219709)"><g/></g></g><g fill="#000000" fill-opacity="1"><g transform="translate(331.019741, 156.219709)"><g/></g></g><g fill="#000000" fill-opacity="1"><g transform="translate(345.002712, 156.219709)"><g><path d="M 21.59375 -57.40625 L 21.59375 0 L 2.0625 0 C 3.445312 0 4.617188 -0.5625 5.578125 -1.6875 C 6.546875 -2.820312 7.03125 -4.078125 7.03125 -5.453125 L 7.03125 -52.4375 C 7.03125 -53.820312 6.546875 -55.078125 5.578125 -56.203125 C 4.617188 -57.335938 3.445312 -57.90625 2.0625 -57.90625 L 21.59375 -57.90625 Z M 22.421875 -57.90625 L 42.515625 -57.90625 L 42.515625 -42.265625 C 41.960938 -44.421875 41.035156 -46.445312 39.734375 -48.34375 C 38.441406 -50.25 36.914062 -51.90625 35.15625 -53.3125 C 33.394531 -54.71875 31.421875 -55.832031 29.234375 -56.65625 C 27.054688 -57.488281 24.785156 -57.90625 22.421875 -57.90625 Z M 22.421875 0 C 24.785156 0 27.054688 -0.398438 29.234375 -1.203125 C 31.421875 -2.003906 33.394531 -3.109375 35.15625 -4.515625 C 36.914062 -5.921875 38.441406 -7.570312 39.734375 -9.46875 C 41.035156 -11.375 41.960938 -13.398438 42.515625 -15.546875 L 42.515625 0 Z M 21.59375 -28.953125 C 23.082031 -28.953125 24.539062 -28.6875 25.96875 -28.15625 C 27.40625 -27.632812 28.703125 -26.929688 29.859375 -26.046875 C 31.015625 -25.171875 32.003906 -24.125 32.828125 -22.90625 C 33.660156 -21.695312 34.269531 -20.40625 34.65625 -19.03125 L 34.65625 -38.875 C 34.269531 -37.5 33.660156 -36.203125 32.828125 -34.984375 C 32.003906 -33.773438 31.015625 -32.726562 29.859375 -31.84375 C 28.703125 -30.957031 27.40625 -30.253906 25.96875 -29.734375 C 24.539062 -29.210938 23.082031 -28.953125 21.59375 -28.953125 Z M 21.59375 -28.953125 "/></g></g></g><g fill="#000000" fill-opacity="1"><g transform="translate(391.568389, 156.219709)"><g><path d="M 45.171875 -15.96875 C 45.328125 -13.757812 44.878906 -11.703125 43.828125 -9.796875 C 42.785156 -7.898438 41.300781 -6.234375 39.375 -4.796875 C 37.445312 -3.359375 35.171875 -2.210938 32.546875 -1.359375 C 29.929688 -0.503906 27.1875 -0.0507812 24.3125 0 C 25.3125 -0.113281 26.265625 -0.414062 27.171875 -0.90625 C 28.078125 -1.40625 28.890625 -2.023438 29.609375 -2.765625 C 30.328125 -3.515625 30.890625 -4.367188 31.296875 -5.328125 C 31.710938 -6.296875 31.921875 -7.304688 31.921875 -8.359375 C 31.921875 -10.453125 31.191406 -12.4375 29.734375 -14.3125 C 28.273438 -16.1875 26.425781 -18.019531 24.1875 -19.8125 C 21.957031 -21.601562 19.5625 -23.40625 17 -25.21875 C 14.4375 -27.039062 12.035156 -28.945312 9.796875 -30.9375 C 7.566406 -32.925781 5.71875 -35.019531 4.25 -37.21875 C 2.789062 -39.425781 2.0625 -41.828125 2.0625 -44.421875 C 2.0625 -46.898438 2.738281 -48.992188 4.09375 -50.703125 C 5.445312 -52.410156 7.15625 -53.800781 9.21875 -54.875 C 11.289062 -55.957031 13.550781 -56.734375 16 -57.203125 C 18.457031 -57.671875 20.816406 -57.90625 23.078125 -57.90625 L 24.3125 -57.90625 C 22.382812 -57.738281 20.675781 -57.019531 19.1875 -55.75 C 17.695312 -54.476562 16.867188 -52.6875 16.703125 -50.375 C 16.546875 -48.226562 17.113281 -46.242188 18.40625 -44.421875 C 19.695312 -42.597656 21.347656 -40.84375 23.359375 -39.15625 C 25.378906 -37.476562 27.613281 -35.8125 30.0625 -34.15625 C 32.519531 -32.507812 34.820312 -30.757812 36.96875 -28.90625 C 39.125 -27.0625 40.972656 -25.09375 42.515625 -23 C 44.054688 -20.90625 44.941406 -18.5625 45.171875 -15.96875 Z M 41.4375 -42.265625 C 41.113281 -43.921875 40.519531 -45.601562 39.65625 -47.3125 C 38.800781 -49.019531 37.726562 -50.617188 36.4375 -52.109375 C 35.144531 -53.597656 33.65625 -54.851562 31.96875 -55.875 C 30.289062 -56.894531 28.457031 -57.515625 26.46875 -57.734375 C 28.226562 -57.566406 29.894531 -57.359375 31.46875 -57.109375 C 33.039062 -56.867188 34.710938 -56.75 36.484375 -56.75 C 37.421875 -56.75 38.34375 -56.828125 39.25 -56.984375 C 40.15625 -57.148438 40.882812 -57.457031 41.4375 -57.90625 Z M 14.890625 -3.96875 C 15.054688 -3.03125 15.769531 -2.160156 17.03125 -1.359375 C 18.300781 -0.566406 20.097656 -0.113281 22.421875 0 C 19.609375 -0.113281 16.972656 -0.554688 14.515625 -1.328125 C 12.066406 -2.097656 9.914062 -3.113281 8.0625 -4.375 C 6.21875 -5.644531 4.753906 -7.117188 3.671875 -8.796875 C 2.597656 -10.484375 2.0625 -12.320312 2.0625 -14.3125 C 2.0625 -15.519531 2.296875 -16.660156 2.765625 -17.734375 C 3.234375 -18.816406 3.867188 -19.753906 4.671875 -20.546875 C 5.472656 -21.347656 6.410156 -21.984375 7.484375 -22.453125 C 8.554688 -22.921875 9.703125 -23.15625 10.921875 -23.15625 C 12.128906 -23.15625 13.269531 -22.921875 14.34375 -22.453125 C 15.425781 -21.984375 16.363281 -21.347656 17.15625 -20.546875 C 17.957031 -19.753906 18.59375 -18.816406 19.0625 -17.734375 C 19.53125 -16.660156 19.765625 -15.519531 19.765625 -14.3125 C 19.765625 -13.09375 19.53125 -11.929688 19.0625 -10.828125 C 18.59375 -9.734375 17.972656 -8.800781 17.203125 -8.03125 C 16.316406 -7.09375 15.679688 -6.375 15.296875 -5.875 C 14.910156 -5.375 14.773438 -4.738281 14.890625 -3.96875 Z M 14.890625 -3.96875 "/></g></g></g><g fill="#000000" fill-opacity="1"><g transform="translate(439.209194, 156.219709)"><g><path d="M 34.25 -5.453125 C 34.25 -4.078125 34.726562 -2.820312 35.6875 -1.6875 C 36.65625 -0.5625 37.828125 0 39.203125 0 L 14.640625 0 C 16.078125 0 17.265625 -0.5625 18.203125 -1.6875 C 19.140625 -2.820312 19.609375 -4.078125 19.609375 -5.453125 L 19.609375 -57.90625 L 34.25 -57.90625 Z M 17.78125 -57.90625 C 15.6875 -57.6875 13.796875 -57.132812 12.109375 -56.25 C 10.429688 -55.363281 8.929688 -54.21875 7.609375 -52.8125 C 6.285156 -51.40625 5.164062 -49.804688 4.25 -48.015625 C 3.34375 -46.222656 2.613281 -44.304688 2.0625 -42.265625 L 2.0625 -57.90625 Z M 51.78125 -57.90625 L 51.78125 -42.265625 C 51.28125 -44.304688 50.5625 -46.222656 49.625 -48.015625 C 48.6875 -49.804688 47.570312 -51.40625 46.28125 -52.8125 C 44.988281 -54.21875 43.484375 -55.363281 41.765625 -56.25 C 40.054688 -57.132812 38.179688 -57.6875 36.140625 -57.90625 Z M 51.78125 -57.90625 "/></g></g></g><g fill="#000000" fill-opacity="1"><g transform="translate(483.458311, 156.219709)"><g><path d="M 13.234375 -9.1875 C 13.234375 -7.914062 13.46875 -6.710938 13.9375 -5.578125 C 14.40625 -4.453125 15.050781 -3.472656 15.875 -2.640625 C 16.707031 -1.816406 17.675781 -1.171875 18.78125 -0.703125 C 19.882812 -0.234375 21.066406 0 22.328125 0 L 2.0625 0 C 3.28125 -0.164062 4.453125 -0.550781 5.578125 -1.15625 C 6.710938 -1.757812 7.773438 -2.515625 8.765625 -3.421875 C 9.753906 -4.335938 10.632812 -5.347656 11.40625 -6.453125 C 12.1875 -7.554688 12.796875 -8.6875 13.234375 -9.84375 Z M 29.109375 0 C 30.273438 0 31.269531 -0.476562 32.09375 -1.4375 C 32.914062 -2.40625 33.328125 -3.5 33.328125 -4.71875 C 33.328125 -4.9375 33.328125 -5.15625 33.328125 -5.375 C 33.328125 -5.59375 33.273438 -5.8125 33.171875 -6.03125 L 30.765625 -12.984375 L 30.609375 -13.484375 L 24.734375 -30.4375 C 24.347656 -31.375 23.660156 -31.84375 22.671875 -31.84375 C 21.734375 -31.84375 21.070312 -31.375 20.6875 -30.4375 L 30.609375 -57.90625 L 39.78125 -31.515625 C 40.164062 -30.410156 40.609375 -29.097656 41.109375 -27.578125 C 41.609375 -26.066406 42.050781 -24.757812 42.4375 -23.65625 L 49.21875 -4.296875 C 49.601562 -3.191406 50.273438 -2.195312 51.234375 -1.3125 C 52.203125 -0.4375 53.320312 0 54.59375 0 Z M 29.109375 0 "/></g></g></g><g fill="#000000" fill-opacity="1"><g transform="translate(530.519549, 156.219709)"><g><path d="M 34.25 -5.453125 C 34.25 -4.078125 34.726562 -2.820312 35.6875 -1.6875 C 36.65625 -0.5625 37.828125 0 39.203125 0 L 14.640625 0 C 16.078125 0 17.265625 -0.5625 18.203125 -1.6875 C 19.140625 -2.820312 19.609375 -4.078125 19.609375 -5.453125 L 19.609375 -57.90625 L 34.25 -57.90625 Z M 17.78125 -57.90625 C 15.6875 -57.6875 13.796875 -57.132812 12.109375 -56.25 C 10.429688 -55.363281 8.929688 -54.21875 7.609375 -52.8125 C 6.285156 -51.40625 5.164062 -49.804688 4.25 -48.015625 C 3.34375 -46.222656 2.613281 -44.304688 2.0625 -42.265625 L 2.0625 -57.90625 Z M 51.78125 -57.90625 L 51.78125 -42.265625 C 51.28125 -44.304688 50.5625 -46.222656 49.625 -48.015625 C 48.6875 -49.804688 47.570312 -51.40625 46.28125 -52.8125 C 44.988281 -54.21875 43.484375 -55.363281 41.765625 -56.25 C 40.054688 -57.132812 38.179688 -57.6875 36.140625 -57.90625 Z M 51.78125 -57.90625 "/></g></g></g><g fill="#000000" fill-opacity="1"><g transform="translate(586.348699, 156.219709)"><g><path d="M 21.59375 -57.40625 L 21.59375 0 L 2.0625 0 C 3.445312 0 4.617188 -0.5625 5.578125 -1.6875 C 6.546875 -2.820312 7.03125 -4.078125 7.03125 -5.453125 L 7.03125 -52.4375 C 7.03125 -53.820312 6.546875 -55.078125 5.578125 -56.203125 C 4.617188 -57.335938 3.445312 -57.90625 2.0625 -57.90625 L 21.59375 -57.90625 Z M 22.421875 -57.90625 L 42.515625 -57.90625 L 42.515625 -42.265625 C 41.960938 -44.421875 41.035156 -46.445312 39.734375 -48.34375 C 38.441406 -50.25 36.914062 -51.90625 35.15625 -53.3125 C 33.394531 -54.71875 31.421875 -55.832031 29.234375 -56.65625 C 27.054688 -57.488281 24.785156 -57.90625 22.421875 -57.90625 Z M 22.421875 0 C 24.785156 0 27.054688 -0.398438 29.234375 -1.203125 C 31.421875 -2.003906 33.394531 -3.109375 35.15625 -4.515625 C 36.914062 -5.921875 38.441406 -7.570312 39.734375 -9.46875 C 41.035156 -11.375 41.960938 -13.398438 42.515625 -15.546875 L 42.515625 0 Z M 21.59375 -28.953125 C 23.082031 -28.953125 24.539062 -28.6875 25.96875 -28.15625 C 27.40625 -27.632812 28.703125 -26.929688 29.859375 -26.046875 C 31.015625 -25.171875 32.003906 -24.125 32.828125 -22.90625 C 33.660156 -21.695312 34.269531 -20.40625 34.65625 -19.03125 L 34.65625 -38.875 C 34.269531 -37.5 33.660156 -36.203125 32.828125 -34.984375 C 32.003906 -33.773438 31.015625 -32.726562 29.859375 -31.84375 C 28.703125 -30.957031 27.40625 -30.253906 25.96875 -29.734375 C 24.539062 -29.210938 23.082031 -28.953125 21.59375 -28.953125 Z M 21.59375 -28.953125 "/></g></g></g></g></g></svg>