<?xml version="1.0" encoding="UTF-8"?>
<svg id="Layer_1" xmlns="http://www.w3.org/2000/svg" version="1.1" viewBox="0 0 2556 1179">
  <!-- Generator: Adobe Illustrator 29.8.4, SVG Export Plug-In . SVG Version: 2.1.1 Build 6)  -->
  <defs>
    <style>
      .st0 {
        fill: blue;
      }
    </style>
  </defs>
  <path class="st0" d="M274.04,407.34l-25.33-5.19v-2.6h190.92v2.6l-31.17,4.55c-18.18,2.6-24.68,18.18-65.59,184.43-43.51,175.34-44.16,185.73-25.33,190.27l25.98,5.2-.65,2.6h-190.92v-2.6l31.82-5.84c18.18-4.55,23.38-18.18,64.94-183.13,43.51-175.99,44.81-186.38,25.33-190.27ZM506.53,442.41c.65-19.48-8.44-29.87-25.98-35.72l-22.08-4.55.65-2.6h178.58l-.65,2.6-11.04,3.25c-24.03,7.14-62.99,31.82-179.88,125.98,31.82,100.01,56.5,179.23,79.88,224.69,7.79,14.29,12.99,22.08,27.27,30.52v2.6h-126.63c-13.64-35.07-39.61-120.14-61.69-198.07,114.94-88.32,140.27-120.14,141.57-148.71Z"/>
  <path d="M705.89,784.64c129.23-6.49,151.31-16.88,185.08-81.17l37.67-73.38h2.6c-19.48,55.85-39.61,114.29-51.3,159.1h-298.07v-2.6l39.61-5.84c32.47-4.55,34.42-9.74,76.63-179.23,46.76-188.98,45.46-190.92,11.69-195.47l-33.77-3.9.65-2.6h293.53c-9.74,44.16-18.18,101.31-24.68,155.21h-2.6l-3.25-69.49c-5.2-62.99-14.94-75.33-138.32-81.82-10.39,15.59-16.88,32.47-55.2,186.38,87.67-1.3,98.06-9.74,115.59-50.65l20.78-48.71h2.6c-13.64,44.16-36.37,161.05-43.51,203.91h-2.6l1.3-47.41c0-44.16-9.09-51.95-94.81-53.9v.65c-39.61,157.8-41.56,175.99-39.61,190.92Z"/>
  <path d="M1066.3,409.94l-42.86-7.79v-2.6h185.08v2.6l-51.95,7.79c-18.18,2.6-24.68,17.53-65.59,181.18-42.86,172.74-44.81,183.78-22.08,187.68l43.51,7.79-.65,2.6h-185.08v-2.6l51.95-8.44c17.53-3.25,24.03-17.53,64.94-180.53,42.86-172.74,44.81-183.78,22.73-187.68Z"/>
  <path class="st0" d="M1336.45,778.15l51.95,8.44v2.6h-225.99v-2.6l24.68-5.2c24.03-4.55,27.92-14.29,70.78-183.78,44.81-180.53,45.46-187.68,20.78-191.57l-20.78-3.9v-2.6h198.72c96.11,0,116.24,33.12,116.24,78.58,0,77.28-59.1,143.52-129.88,143.52-31.17,0-63.64-11.04-91.57-27.92-42.21,170.79-39.61,181.18-14.94,184.43ZM1352.03,589.82c12.99,1.95,24.68,1.95,40.26,1.95,53.25,0,91.57-54.55,91.57-123.39,0-39.61-14.94-64.29-61.04-64.29-5.2,0-10.39,0-14.94.65-8.44,12.34-17.53,32.47-55.85,185.08Z"/>
  <path d="M1658.54,409.94l-42.86-7.79v-2.6h185.08v2.6l-51.95,7.79c-18.18,2.6-24.68,17.53-65.59,181.18-42.86,172.74-44.81,183.78-22.08,187.68l43.51,7.79-.65,2.6h-185.08v-2.6l51.95-8.44c17.53-3.25,24.03-17.53,64.94-180.53,42.86-172.74,44.81-183.78,22.73-187.68Z"/>
  <path d="M1797.51,760.62c0,12.34,9.09,17.53,26.62,20.13l44.81,5.84v2.6h-151.31v-2.6l7.14-2.6c24.68-7.79,54.55-63.64,268.2-394.19h2.6c5.2,38.96,22.73,127.93,35.07,190.92,22.73,120.79,31.82,190.27,50.65,201.96l6.49,3.9v2.6h-154.56v-2.6l38.31-3.9c26.62-2.6,35.72-11.69,35.72-24.68,0-22.08-8.44-86.37-16.24-135.08-44.81.65-89.62.65-135.72,2.6-35.72,66.24-57.8,116.24-57.8,135.08ZM1859.85,617.1c43.51,1.95,86.37,1.95,130.53,1.95l-1.95-13.64c-9.09-47.41-24.03-119.49-31.82-152.61-37.02,59.74-70.13,116.24-96.76,164.3Z"/>
  <path class="st0" d="M2238.45,407.34l-25.98-5.19.65-2.6h190.92v2.6l-31.17,4.55c-18.18,2.6-24.68,18.18-65.59,184.43-43.51,175.34-44.81,185.73-25.33,190.27l25.98,5.2-.65,2.6h-190.92v-2.6l31.82-5.84c17.53-4.55,22.73-18.18,64.94-183.13,43.51-175.99,44.81-186.38,25.33-190.27Z"/>
</svg>