<?xml version="1.0" encoding="UTF-8"?>
<svg id="Layer_1" xmlns="http://www.w3.org/2000/svg" version="1.1" viewBox="0 0 2556 1179">
  <!-- Generator: Adobe Illustrator 29.8.4, SVG Export Plug-In . SVG Version: 2.1.1 Build 6)  -->
  <defs>
    <style>
      .st0 {
        fill: #fff;
      }
    </style>
  </defs>
  <g>
    <path d="M420,872.19l-130.65-248.31h-1.53l-45.84,248.31h-104.67l104.67-565.39h104.67l-45.08,244.49h1.53l221.57-244.49h123.01l-264.36,278.11,159.68,287.28h-123.01Z"/>
    <path d="M558.28,872.19l104.67-565.39h304.09l-18.34,97.8h-199.41l-25.21,138.29h191.01l-18.34,97.8h-191.01l-24.45,133.71h199.41l-18.34,97.8h-304.09Z"/>
    <path d="M932.65,872.19l104.67-565.39h104.67l-104.67,565.39h-104.67Z"/>
    <path d="M1115.26,872.19l104.67-565.39h168.09c112.31,0,165.03,55.01,165.03,136,0,113.08-82.52,213.93-226.92,213.93h-66.47l-39.73,215.46h-104.67ZM1297.86,558.94c45.08,0,75.64-3.82,92.45-10.7,34.38-14.52,55.77-45.84,55.77-82.52,0-31.33-10.7-61.12-106.96-61.12h-32.85l-28.27,154.34h19.87Z"/>
    <path d="M1511.79,872.19l104.67-565.39h104.67l-104.67,565.39h-104.67Z"/>
    <path d="M2027.51,872.19l26.74-145.93h-160.45l-127.59,145.93h-126.83l501.97-565.39h95.5l-104.67,565.39h-104.67ZM2097.8,493.23h-1.53l-116.9,135.23h93.21l25.21-135.23Z"/>
    <path d="M2209.35,872.19l104.67-565.39h104.67l-104.67,565.39h-104.67Z"/>
  </g>
  <polygon points="1278.56 355.94 1232.79 607.97 1447.93 554.24 1514.14 375.89 1278.56 355.94"/>
  <polygon class="st0" points="1363.21 320.9 1398.84 430.55 1514.13 430.55 1420.85 498.32 1456.48 607.97 1363.21 540.2 1269.93 607.97 1305.56 498.32 1212.28 430.55 1327.58 430.55 1363.21 320.9"/>
</svg>