<?xml version="1.0" encoding="UTF-8"?>
<svg id="Layer_1" xmlns="http://www.w3.org/2000/svg" version="1.1" viewBox="0 0 2556 1179">
  <!-- Generator: Adobe Illustrator 29.8.4, SVG Export Plug-In . SVG Version: 2.1.1 Build 6)  -->
  <defs>
    <style>
      .st0 {
        fill: blue;
      }
    </style>
  </defs>
  <path class="st0" d="M451.66,358.32l-23.38,189.62,142.87-189.62h125.98l-165.6,220.8,148.06,212.35h-131.83l-92.86-138.32c-11.69-17.53-24.03-40.26-32.47-57.15l-24.03,195.47h-109.75l53.25-433.15h109.75Z"/>
  <path d="M988.71,358.32l-11.69,95.46h-127.28l-9.09,72.08h123.39l-11.69,94.81h-123.39l-9.09,75.33h132.48l-11.69,95.46h-242.23l53.25-433.15h237.03Z"/>
  <path d="M1148.45,358.32l-53.25,433.15h-109.75l53.25-433.15h109.75Z"/>
  <path class="st0" d="M1212.74,358.32h144.82c49.35,0,93.51,6.49,125.98,38.31s36.37,70.78,36.37,99.36c0,31.17-4.55,70.14-33.77,101.96-29.87,32.47-81.82,50-150.66,50h-48.71l-17.53,143.52h-109.75l53.25-433.15ZM1311.45,449.23l-12.99,107.8h34.42c15.58,0,44.16-1.3,61.04-18.18,12.34-12.34,13.64-28.57,13.64-38.31,0-18.83-5.84-30.52-12.34-37.02-14.29-14.94-37.67-14.29-53.25-14.29h-30.52Z"/>
  <path d="M1670.56,358.32l-53.25,433.15h-109.75l53.25-433.15h109.75Z"/>
  <path d="M1799.79,718.73l-33.12,72.73h-122.09l214.95-433.15h123.39l104.55,433.15h-114.94l-18.18-72.73h-154.56ZM1840.05,633.01h93.51l-18.18-82.47c-7.14-33.12-7.79-37.02-9.74-50-.65-3.25-1.95-8.44-2.6-15.59-7.14,22.73-12.99,36.37-19.48,51.3l-43.51,96.76Z"/>
  <path class="st0" d="M2269.3,358.32l-53.25,433.15h-109.75l53.25-433.15h109.75Z"/>
</svg>