<?xml version="1.0" encoding="UTF-8"?>
<svg id="Layer_1" xmlns="http://www.w3.org/2000/svg" version="1.1" viewBox="0 0 2556 1179">
  <!-- Generator: Adobe Illustrator 29.8.4, SVG Export Plug-In . SVG Version: 2.1.1 Build 6)  -->
  <defs>
    <style>
      .st0 {
        fill: #fff;
      }
    </style>
  </defs>
  <g>
    <path d="M138.4,851.41l105.47-569.7h105.47l-105.47,569.7h-105.47ZM440.19,851.41l-142.43-286.39,249.44-283.31h123.18l-255.6,283.31,154.74,286.39h-129.34Z"/>
    <path d="M937.52,847.56c-23.87,7.7-54.66,15.4-99.31,15.4-147.04,0-246.36-90.07-246.36-233.27,0-204.01,168.6-359.53,356.45-359.53,40.8,0,69.29,6.16,93.15,15.4l-20.02,109.32c-19.25-15.4-54.66-26.18-91.61-26.18-93.15,0-179.38,60.82-212.48,150.89h271.76l-18.48,98.54h-271.76c4.62,90.84,66.21,146.27,155.51,146.27,42.34,0,77.76-9.24,103.16-26.95l-20.02,110.09Z"/>
    <path d="M986.79,851.41l105.47-569.7h105.47l-105.47,569.7h-105.47Z"/>
    <path d="M1170.79,851.41l105.47-569.7h169.37c113.17,0,166.29,55.43,166.29,137.04,0,113.94-83.15,215.56-228.65,215.56h-66.98l-40.03,217.1h-105.47ZM1354.79,535.77c45.42,0,76.22-3.85,93.15-10.78,34.64-14.63,56.2-46.19,56.2-83.15,0-31.56-10.78-61.59-107.78-61.59h-33.1l-28.49,155.51h20.02Z"/>
    <path d="M1570.35,851.41l105.47-569.7h105.47l-105.47,569.7h-105.47Z"/>
    <path d="M2114.65,851.41l-74.68-147.04h-161.67l-26.95,147.04h-105.47l105.47-569.7h96.23l294.86,569.7h-127.8ZM1923.72,469.56h-1.54l-25.41,136.27h93.92l-66.98-136.27Z"/>
    <path d="M2266.31,851.41l105.47-569.7h105.47l-105.47,569.7h-105.47Z"/>
  </g>
  <polygon points="1334.77 337.46 1289 589.5 1504.14 535.77 1570.35 357.42 1334.77 337.46"/>
  <path class="st0" d="M1575.67,458.01c-125.88,12.21-135.78,22.11-148,148-12.21-125.88-22.11-135.78-148-148,125.88-12.21,135.78-22.11,148-148,12.21,125.88,22.11,135.78,148,148Z"/>
</svg>