<?xml version="1.0" encoding="UTF-8"?>
<svg id="Layer_1" xmlns="http://www.w3.org/2000/svg" version="1.1" viewBox="0 0 2556 1179">
  <!-- Generator: Adobe Illustrator 29.8.4, SVG Export Plug-In . SVG Version: 2.1.1 Build 6)  -->
  <defs>
    <style>
      .st0 {
        fill: blue;
      }

      .st1 {
        fill: #fff;
      }
    </style>
  </defs>
  <path class="st0" d="M126.35,843.75l94.14-508.49h129.87l-94.14,508.49H126.35ZM396.4,843.75l-92.77-254.93,191.71-253.56h142.93l-197.9,253.56,114.75,254.93h-158.73Z"/>
  <path d="M887.02,838.25c-19.93,7.56-61.16,15.12-92.08,15.12-129.18,0-217.14-85.21-217.14-210.27,0-168.35,141.55-317.46,320.9-317.46,32.3,0,55.66,4.81,81.08,15.12l-22.68,120.94c-21.3-13.74-47.41-21.99-79.71-21.99-57.03,0-109.94,33.67-142.24,88.64h203.4l-21.3,114.07h-205.46c8.93,59.78,50.85,96.89,110.63,96.89,33.67,0,61.16-8.25,87.96-24.05l-23.36,123Z"/>
  <path d="M941.3,843.75l94.14-508.49h129.87l-94.14,508.49h-129.87Z"/>
  <path class="st0" d="M1135.08,843.75l94.14-508.49h192.4c98.95,0,162.17,39.17,162.17,138.8,0,29.55-6.87,57.03-21.3,87.96-37.79,80.4-102.39,122.31-212.33,122.31h-61.16l-29.55,159.42h-124.37ZM1370.08,570.26c60.47,0,86.58-35.04,86.58-76.27,0-30.23-21.99-44.66-69.4-44.66h-54.97l-21.99,120.94h59.78Z"/>
  <path d="M1543.93,843.75l94.14-508.49h129.87l-94.14,508.49h-129.87Z"/>
  <path d="M2059.29,843.75l-30.92-73.53h-147.05l-13.74,73.53h-129.87l94.14-508.49h128.5l254.93,508.49h-155.98ZM1928.04,526.28h-1.37l-26.11,140.87h85.21l-57.72-140.87Z"/>
  <path class="st0" d="M2205.64,843.75l94.14-508.49h129.87l-94.14,508.49h-129.87Z"/>
  <polygon class="st0" points="1332.29 449.32 1310.3 570.26 1458.21 583.77 1494.8 417.45 1332.29 449.32"/>
  <path class="st1" d="M1534.55,507.61c-125.88,12.21-135.78,22.11-148,148-12.21-125.88-22.11-135.78-148-148,125.88-12.21,135.78-22.11,148-148,12.21,125.88,22.11,135.78,148,148Z"/>
</svg>