<?xml version="1.0" encoding="UTF-8"?>
<svg id="Layer_1" xmlns="http://www.w3.org/2000/svg" version="1.1" viewBox="0 0 2436 1125">
  <!-- Generator: Adobe Illustrator 30.1.0, SVG Export Plug-In . SVG Version: 2.1.1 Build 136)  -->
  <defs>
    <style>
      .st0, .st1 {
        fill: #ec0972;
      }

      .st1 {
        stroke: #fff;
        stroke-miterlimit: 10;
        stroke-width: 7px;
      }
    </style>
  </defs>
  <g>
    <path d="M80.81,823.26v-482.49h60.08v403.23h61.08v79.27h-121.15Z"/>
    <path d="M245.52,823.26v-380.48c0-19.31,3.26-36.64,9.76-52.04,6.51-15.4,15.35-27.58,26.54-36.54,11.17-8.96,23.6-13.44,37.3-13.44h47.56v79.27h-36.55c-7,0-12.69,3.11-17.02,9.31-4.34,6.2-6.51,14.13-6.51,23.77l-1,370.14h-60.08ZM270.55,537.21v-79.27h96.12v79.27h-96.12ZM270.55,823.26v-79.27h96.12v79.27h-96.12Z"/>
    <path d="M603.96,823.26v-482.49h60.08v403.23h61.08v79.27h-121.15Z"/>
    <path d="M843.27,830.15c-15.02,0-28.54-4.82-40.55-14.48-12.02-9.65-21.53-22.74-28.54-39.28-7-16.55-10.51-34.92-10.51-55.15v-380.48h60.08l1,382.55c0,7.35,1.75,13.56,5.26,18.61,3.5,5.06,7.92,7.59,13.27,7.59s9.84-2.52,13.52-7.59c3.66-5.05,5.5-11.25,5.5-18.61v-382.55h60.08v380.48c0,20.22-3.5,38.6-10.51,55.15-7,16.55-16.44,29.64-28.28,39.28-11.85,9.66-25.28,14.48-40.3,14.48Z"/>
    <path d="M967.42,823.26v-79.27h80.6c13.01,0,24.69-4.48,35.04-13.44,10.34-8.96,18.52-21.03,24.53-36.19,6.01-15.16,9.01-31.93,9.01-50.32,0-29.4-7.1-52.14-21.27-68.24-14.19-16.08-32.63-25.26-55.32-27.57-13.36-1.84-25.71-7-37.05-15.51-11.35-8.49-20.44-20.1-27.28-34.8-6.85-14.71-10.27-32.16-10.27-52.39s3.51-38.26,10.51-54.11c7.01-15.86,16.44-28.27,28.28-37.23s24.95-13.44,39.3-13.44h29.53v79.27h-27.53c-5,0-9.18,2.3-12.51,6.89-3.34,4.61-5,10.35-5,17.23,0,15.16,5.83,23.44,17.52,24.82,24.7,3.21,47.14,12.17,67.34,26.88,20.19,14.71,36.3,34.58,48.32,59.63,12.02,25.04,18.02,55.25,18.02,90.64,0,33.55-5.76,63.65-17.27,90.3-11.52,26.65-27.21,47.79-47.06,63.41-19.86,15.63-42.15,23.44-66.84,23.44h-80.6Z"/>
    <path d="M1180.7,823.26v-79.27h80.6c13.01,0,24.69-4.48,35.04-13.44,10.34-8.96,18.52-21.03,24.53-36.19s9.01-31.93,9.01-50.32c0-29.4-7.1-52.14-21.27-68.24-14.19-16.08-32.63-25.26-55.32-27.57-13.36-1.84-25.71-7-37.05-15.51-11.35-8.49-20.44-20.1-27.28-34.8-6.85-14.71-10.27-32.16-10.27-52.39s3.51-38.26,10.51-54.11c7.01-15.86,16.44-28.27,28.28-37.23s24.95-13.44,39.3-13.44h29.53v79.27h-27.53c-5,0-9.18,2.3-12.51,6.89-3.34,4.61-5,10.35-5,17.23,0,15.16,5.83,23.44,17.52,24.82,24.7,3.21,47.14,12.17,67.34,26.88,20.19,14.71,36.3,34.58,48.32,59.63,12.02,25.04,18.02,55.25,18.02,90.64,0,33.55-5.76,63.65-17.27,90.3-11.52,26.65-27.21,47.79-47.06,63.41-19.86,15.63-42.15,23.44-66.84,23.44h-80.6Z"/>
    <path d="M1499.6,830.15c-15.02,0-28.54-4.82-40.55-14.48-12.02-9.65-21.53-22.74-28.54-39.28-7-16.55-10.51-34.92-10.51-55.15v-380.48h60.08l1,382.55c0,7.35,1.75,13.56,5.26,18.61,3.5,5.06,7.92,7.59,13.27,7.59s9.84-2.52,13.52-7.59c3.66-5.05,5.5-11.25,5.5-18.61v-382.55h60.08v380.48c0,20.22-3.5,38.6-10.51,55.15-7,16.55-16.44,29.64-28.28,39.28-11.85,9.66-25.28,14.48-40.3,14.48Z"/>
    <path d="M1803.47,831.54c-24.36,0-47.4-6.67-69.08-19.99-21.7-13.32-40.97-31.59-57.83-54.8-16.86-23.2-30.12-49.73-39.8-79.62-9.69-29.86-14.51-61.57-14.51-95.12s4.83-65.24,14.51-95.12c9.68-29.87,22.94-56.4,39.8-79.62,16.85-23.19,36.12-41.46,57.83-54.8,21.69-13.32,44.72-19.99,69.08-19.99s47.39,6.67,69.09,19.99c21.69,13.34,40.97,31.61,57.83,54.8,16.85,23.22,30.12,49.75,39.8,79.62,9.68,29.87,14.52,61.58,14.52,95.12s-4.84,65.26-14.52,95.12c-9.68,29.88-22.95,56.41-39.8,79.62-16.86,23.2-36.13,41.47-57.83,54.8-21.7,13.32-44.73,19.99-69.09,19.99ZM1803.47,748.82c16.69,0,32.29-4.25,46.81-12.75,14.51-8.49,27.11-20.34,37.8-35.5,10.68-15.16,19.03-32.85,25.03-53.07,6.01-20.21,9.01-42.04,9.01-65.48s-3-45.25-9.01-65.48c-6.01-20.21-14.35-37.91-25.03-53.07-10.68-15.16-23.28-27-37.8-35.5-14.52-8.49-30.12-12.75-46.81-12.75s-32.21,4.26-46.55,12.75c-14.36,8.51-26.96,20.34-37.8,35.5-10.85,15.16-19.27,32.86-25.28,53.07-6.01,20.22-9.01,42.04-9.01,65.48s3,45.27,9.01,65.48c6.01,20.22,14.43,37.91,25.28,53.07,10.84,15.16,23.44,27.01,37.8,35.5,14.35,8.51,29.86,12.75,46.55,12.75Z"/>
    <path d="M1994.73,823.26v-79.27h80.6c13.03,0,24.7-4.48,35.04-13.44,10.36-8.96,18.54-21.03,24.55-36.19s9.01-31.93,9.01-50.32c0-29.4-7.1-52.14-21.29-68.24-14.19-16.08-32.63-25.26-55.31-27.57-13.36-1.84-25.71-7-37.06-15.51-11.34-8.49-20.44-20.1-27.28-34.8-6.85-14.71-10.27-32.16-10.27-52.39s3.51-38.26,10.51-54.11c7.01-15.86,16.44-28.27,28.28-37.23,11.86-8.96,24.96-13.44,39.31-13.44h29.55v79.27h-27.55c-5,0-9.17,2.3-12.51,6.89-3.34,4.61-5,10.35-5,17.23,0,15.16,5.83,23.44,17.51,24.82,24.7,3.21,47.16,12.17,67.36,26.88,20.17,14.71,36.28,34.58,48.3,59.63,12.02,25.04,18.02,55.25,18.02,90.64,0,33.55-5.75,63.65-17.27,90.3-11.52,26.65-27.19,47.79-47.05,63.41-19.86,15.63-42.13,23.44-66.84,23.44h-80.6Z"/>
    <path d="M2234.03,823.26v-380.48c0-19.31,3.25-36.64,9.76-52.04,6.5-15.4,15.34-27.58,26.53-36.54,11.17-8.96,23.6-13.44,37.29-13.44h47.57v79.27h-36.55c-7,0-12.69,3.11-17.03,9.31s-6.5,14.13-6.5,23.77l-1.01,370.14h-60.07ZM2259.06,537.21v-79.27h96.13v79.27h-96.13ZM2259.06,823.26v-79.27h96.13v79.27h-96.13Z"/>
  </g>
  <g id="bSgXhT">
    <path class="st1" d="M1900.58,557.27c-5.06-45.11-.79-107.16-41.74-120.48-17.9-7.33-36.08-7.57-55.36-11.27,34.25-6.97,79.45-1.13,89.17-57.79,5.1-24.04,5.47-48.42,8-74.26,2.65,26.19,2.91,50.88,8.24,75.28,4.28,23.63,16.19,39.78,33.55,45.67,17.97,7.14,36.09,7.7,55.38,11.13-19.54,3.64-37.93,4.07-56.13,11.5-16.7,5.91-28.24,21.6-32.58,44.3-5.54,24.45-5.63,49.13-8.52,75.93Z"/>
  </g>
  <g id="bSgXhT1" data-name="bSgXhT">
    <path class="st0" d="M1900.58,557.27c-5.06-45.11-.79-107.16-41.74-120.48-17.9-7.33-36.08-7.57-55.36-11.27,34.25-6.97,79.45-1.13,89.17-57.79,5.1-24.04,5.47-48.42,8-74.26,2.65,26.19,2.91,50.88,8.24,75.28,4.28,23.63,16.19,39.78,33.55,45.67,17.97,7.14,36.09,7.7,55.38,11.13-19.54,3.64-37.93,4.07-56.13,11.5-16.7,5.91-28.24,21.6-32.58,44.3-5.54,24.45-5.63,49.13-8.52,75.93Z"/>
  </g>
</svg>