<?xml version="1.0" encoding="UTF-8"?>
<svg id="Layer_1" xmlns="http://www.w3.org/2000/svg" version="1.1" viewBox="0 0 2436 1125">
  <!-- Generator: Adobe Illustrator 30.1.0, SVG Export Plug-In . SVG Version: 2.1.1 Build 136)  -->
  <defs>
    <style>
      .st0 {
        fill: #231f20;
      }
    </style>
  </defs>
  <path class="st0" d="M52.96,745.51v-415.94h51.79v347.6h52.65v68.33H52.96Z"/>
  <path class="st0" d="M228.61,745.51v-328c0-16.64,2.81-31.58,8.42-44.86,5.61-13.27,13.23-23.77,22.87-31.49,9.64-7.72,20.35-11.59,32.15-11.59h41v68.33h-31.51c-6.04,0-10.94,2.67-14.67,8.02-3.74,5.35-5.61,12.18-5.61,20.5l-.86,319.08h-51.79ZM250.19,498.92v-68.33h82.86v68.33h-82.86ZM250.19,745.51v-68.33h82.86v68.33h-82.86Z"/>
  <path class="st0" d="M638.61,745.51v-415.94h51.79v347.6h52.65v68.33h-104.44Z"/>
  <path class="st0" d="M878.56,751.45c-12.95,0-24.6-4.16-34.96-12.48s-18.56-19.61-24.6-33.87-9.06-30.1-9.06-47.54v-328h51.79l.86,329.78c0,6.34,1.51,11.69,4.53,16.04,3.02,4.36,6.83,6.54,11.44,6.54s8.48-2.17,11.65-6.54c3.16-4.35,4.75-9.7,4.75-16.04v-329.78h51.79v328c0,17.44-3.02,33.27-9.06,47.54s-14.17,25.55-24.38,33.87c-10.22,8.32-21.79,12.48-34.74,12.48Z"/>
  <path class="st0" d="M1019.25,745.51v-68.33h69.48c11.22,0,21.29-3.86,30.21-11.59,8.92-7.72,15.97-18.12,21.15-31.2,5.18-13.07,7.77-27.53,7.77-43.38,0-25.35-6.12-44.96-18.34-58.83-12.23-13.86-28.13-21.78-47.69-23.77-11.51-1.58-22.16-6.03-31.94-13.37-9.78-7.33-17.63-17.32-23.52-30.01-5.9-12.67-8.85-27.72-8.85-45.16s3.02-32.98,9.06-46.64,14.17-24.36,24.38-32.09c10.21-7.72,21.5-11.59,33.88-11.59h25.46v68.33h-23.74c-4.32,0-7.92,1.99-10.79,5.94-2.88,3.96-4.32,8.91-4.32,14.86,0,13.07,5.03,20.2,15.11,21.39,21.29,2.78,40.64,10.5,58.05,23.17,17.4,12.68,31.29,29.81,41.65,51.4,10.36,21.6,15.54,47.64,15.54,78.14,0,28.92-4.96,54.87-14.89,77.84-9.93,22.98-23.45,41.2-40.57,54.67-17.12,13.47-36.33,20.2-57.62,20.2h-69.48Z"/>
  <path class="st0" d="M1236.77,745.51v-68.33h69.48c11.22,0,21.29-3.86,30.21-11.59,8.91-7.72,15.97-18.12,21.15-31.2,5.18-13.07,7.77-27.53,7.77-43.38,0-25.35-6.12-44.96-18.34-58.83-12.23-13.86-28.13-21.78-47.69-23.77-11.51-1.58-22.16-6.03-31.94-13.37-9.79-7.33-17.63-17.32-23.52-30.01-5.9-12.67-8.85-27.72-8.85-45.16s3.02-32.98,9.06-46.64c6.04-13.67,14.17-24.36,24.38-32.09,10.21-7.72,21.51-11.59,33.88-11.59h25.46v68.33h-23.74c-4.32,0-7.92,1.99-10.79,5.94-2.88,3.96-4.32,8.91-4.32,14.86,0,13.07,5.03,20.2,15.11,21.39,21.29,2.78,40.64,10.5,58.05,23.17,17.41,12.68,31.29,29.81,41.65,51.4,10.36,21.6,15.54,47.64,15.54,78.14,0,28.92-4.96,54.87-14.89,77.84-9.93,22.98-23.45,41.2-40.57,54.67-17.12,13.47-36.33,20.2-57.62,20.2h-69.48Z"/>
  <path class="st0" d="M1545.35,751.45c-12.95,0-24.6-4.16-34.96-12.48s-18.56-19.61-24.6-33.87c-6.04-14.26-9.06-30.1-9.06-47.54v-328h51.79l.86,329.78c0,6.34,1.51,11.69,4.53,16.04,3.02,4.36,6.83,6.54,11.44,6.54s8.48-2.17,11.65-6.54c3.16-4.35,4.75-9.7,4.75-16.04v-329.78h51.79v328c0,17.44-3.02,33.27-9.06,47.54-6.04,14.26-14.17,25.55-24.38,33.87-10.21,8.32-21.79,12.48-34.74,12.48Z"/>
  <path class="st0" d="M1840.97,752.64c-21.01,0-40.86-5.75-59.56-17.23-18.71-11.48-35.32-27.23-49.85-47.24-14.53-20-25.97-42.88-34.31-68.63-8.35-25.75-12.52-53.08-12.52-82s4.17-56.24,12.52-82c8.34-25.75,19.78-48.62,34.31-68.63,14.53-20,31.14-35.74,49.85-47.24,18.7-11.48,38.55-17.23,59.56-17.23s40.85,5.75,59.56,17.23c18.7,11.49,35.31,27.24,49.85,47.24,14.53,20.01,25.96,42.88,34.31,68.63,8.34,25.75,12.52,53.09,12.52,82s-4.17,56.25-12.52,82c-8.35,25.75-19.79,48.63-34.31,68.63-14.53,20.01-31.15,35.75-49.85,47.24-18.71,11.49-38.56,17.23-59.56,17.23ZM1840.97,681.34c14.38,0,27.84-3.66,40.35-10.99,12.52-7.33,23.37-17.53,32.58-30.6,9.21-13.07,16.4-28.32,21.58-45.75,5.18-17.43,7.77-36.25,7.77-56.45s-2.59-39.01-7.77-56.45c-5.18-17.43-12.37-32.68-21.58-45.75-9.21-13.07-20.07-23.27-32.58-30.6-12.52-7.33-25.97-10.99-40.35-10.99s-27.77,3.67-40.14,10.99c-12.37,7.33-23.24,17.53-32.58,30.6-9.35,13.07-16.62,28.33-21.79,45.75-5.18,17.44-7.77,36.25-7.77,56.45s2.59,39.02,7.77,56.45c5.18,17.44,12.44,32.68,21.79,45.75,9.35,13.07,20.21,23.28,32.58,30.6,12.37,7.33,25.75,10.99,40.14,10.99Z"/>
  <path class="st0" d="M2039.51,745.51v-68.33h69.48c11.22,0,21.29-3.86,30.21-11.59,8.92-7.72,15.97-18.12,21.15-31.2,5.18-13.07,7.77-27.53,7.77-43.38,0-25.35-6.12-44.96-18.34-58.83-12.23-13.86-28.13-21.78-47.69-23.77-11.51-1.58-22.16-6.03-31.94-13.37-9.78-7.33-17.63-17.32-23.52-30.01-5.9-12.67-8.85-27.72-8.85-45.16s3.02-32.98,9.06-46.64,14.17-24.36,24.38-32.09c10.21-7.72,21.5-11.59,33.88-11.59h25.46v68.33h-23.74c-4.32,0-7.92,1.99-10.79,5.94-2.88,3.96-4.31,8.91-4.31,14.86,0,13.07,5.03,20.2,15.11,21.39,21.29,2.78,40.63,10.5,58.05,23.17,17.4,12.68,31.29,29.81,41.65,51.4,10.36,21.6,15.54,47.64,15.54,78.14,0,28.92-4.96,54.87-14.89,77.84-9.93,22.98-23.45,41.2-40.57,54.67-17.12,13.47-36.33,20.2-57.62,20.2h-69.48Z"/>
  <path class="st0" d="M2279.46,745.51v-328c0-16.64,2.8-31.58,8.42-44.86,5.61-13.27,13.23-23.77,22.87-31.49,9.64-7.72,20.35-11.59,32.15-11.59h41v68.33h-31.5c-6.04,0-10.94,2.67-14.67,8.02-3.74,5.35-5.61,12.18-5.61,20.5l-.86,319.08h-51.79ZM2301.04,498.92v-68.33h82.86v68.33h-82.86ZM2301.04,745.51v-68.33h82.86v68.33h-82.86Z"/>
</svg>