<?xml version="1.0" encoding="UTF-8"?>
<svg id="Layer_1" xmlns="http://www.w3.org/2000/svg" version="1.1" viewBox="0 0 2436 1125">
  <!-- Generator: Adobe Illustrator 30.1.0, SVG Export Plug-In . SVG Version: 2.1.1 Build 136)  -->
  <defs>
    <style>
      .st0 {
        fill: #231f20;
      }
    </style>
  </defs>
  <path class="st0" d="M46.07,690.2h136.69v-41.25l50.5,56.55v41.25H96.57l-50.5-56.55ZM79.4,374.08l50.5,56.09v218.78h-50.5v-274.87Z"/>
  <path class="st0" d="M239.66,690.2h133.32v-40.79l50.5,56.55v40.79h-133.32l-50.5-56.55ZM272.65,414.41h97.3v-40.33l50.5,56.09v40.33h-97.3v40.33h-50.5v-96.41ZM272.65,551.14h93.93v-40.33l50.5,56.09v40.79h-93.93v41.72h-50.5v-98.27Z"/>
  <path class="st0" d="M612.34,690.2h136.69v-41.25l50.5,56.55v41.25h-136.69l-50.5-56.55ZM645.67,374.08l50.5,56.09v218.78h-50.5v-274.87Z"/>
  <path class="st0" d="M854.74,723.11l-48.82-56.08c16.16,18.08,41.07,27.35,69.69,27.35,87.53,0,96.62-67.67,96.62-139.98v-180.31l50.5,56.09v158.06c0,101.51-41.41,162.23-99.65,162.23-28.95,0-51.85-8.81-68.34-27.35ZM807.94,557.17v-183.09l50.5,56.09v183.09c0,15.3,1.01,28.74,3.37,39.86-35.69-4.64-53.87-32.91-53.87-95.95Z"/>
  <path class="st0" d="M1227.09,659.61c0,46.35-26.6,91.31-67,91.31-21.55,0-39.73-11.12-63.63-38.47l-40.74-47.28c18.18,18.54,39.39,29.2,61.95,29.2,40.06,0,66.66-36.15,66.66-82.51,0-30.59-5.05-50.52-25.59-73.24l42.08,46.81c20.87,23.18,26.26,43.11,26.26,74.16ZM1055.73,607.69l51.51,25.49c4.04,7.88,8.75,14.83,13.8,20.39-1.01.46-2.36.46-3.37.46-23.9,0-45.79-17.15-61.95-46.35ZM1089.73,557.63l-27.27-64.89c7.41,16.69,19.53,31.98,39.05,47.28,45.45,36.62,49.83,50.99,49.83,72.31,0,3.71-.34,7.88-1.01,11.12-5.72-5.56-12.79-11.12-21.21-18.54-19.86-15.3-32.32-30.13-39.39-47.28ZM1087.71,447.32c0-21.79,12.79-36.62,33.67-36.62s38.38,12.05,53.87,32.91v-51.45l42.42,47.28v51.45c-19.86-20.39-39.05-30.13-55.21-30.13-20.87,0-31.98,13.44-31.98,35.23,0,6.49,0,11.59,2.36,18.08l-7.41-6.03c-34.68-28.74-37.71-43.11-37.71-60.72ZM1158.41,538.17l.34.46-.34-.46Z"/>
  <path class="st0" d="M1424.71,659.61c0,46.35-26.6,91.31-67,91.31-21.55,0-39.73-11.12-63.63-38.47l-40.74-47.28c18.18,18.54,39.39,29.2,61.95,29.2,40.06,0,66.66-36.15,66.66-82.51,0-30.59-5.05-50.52-25.59-73.24l42.08,46.81c20.87,23.18,26.26,43.11,26.26,74.16ZM1253.35,607.69l51.51,25.49c4.04,7.88,8.75,14.83,13.8,20.39-1.01.46-2.36.46-3.37.46-23.9,0-45.79-17.15-61.95-46.35ZM1287.35,557.63l-27.27-64.89c7.41,16.69,19.53,31.98,39.05,47.28,45.45,36.62,49.83,50.99,49.83,72.31,0,3.71-.34,7.88-1.01,11.12-5.72-5.56-12.79-11.12-21.21-18.54-19.86-15.3-32.32-30.13-39.39-47.28ZM1285.33,447.32c0-21.79,12.79-36.62,33.67-36.62s38.38,12.05,53.87,32.91v-51.45l42.42,47.28v51.45c-19.86-20.39-39.05-30.13-55.21-30.13-20.87,0-31.98,13.44-31.98,35.23,0,6.49,0,11.59,2.36,18.08l-7.41-6.03c-34.68-28.74-37.71-43.11-37.71-60.72ZM1356.03,538.17l.34.46-.34-.46Z"/>
  <path class="st0" d="M1511.23,723.11l-48.82-56.08c16.16,18.08,41.07,27.35,69.69,27.35,87.53,0,96.62-67.67,96.62-139.98v-180.31l50.5,56.09v158.06c0,101.51-41.41,162.23-99.65,162.23-28.95,0-51.85-8.81-68.34-27.35ZM1464.44,557.17v-183.09l50.5,56.09v183.09c0,15.3,1.01,28.74,3.37,39.86-35.69-4.64-53.87-32.91-53.87-95.95Z"/>
  <path class="st0" d="M1728.72,533.07c0-67.21,32.99-120.51,89.89-120.51,35.69,0,60.6,24.1,74.74,55.16-9.43-5.1-20.2-7.88-32.32-7.88-56.9,0-89.89,53.77-89.89,120.98,0,23.64,4.71,44.96,12.79,62.57-31.98-16.22-55.21-57.48-55.21-110.32ZM1784.6,711.06l-47.47-53.3c20.54,22.71,47.13,36.62,78.44,36.62,80.13,0,125.58-78.33,125.58-162.69,0-50.06-15.49-94.09-42.08-123.76l42.42,47.28c26.6,29.67,42.42,73.7,42.42,124.22,0,83.9-52.18,171.04-125.58,171.04-31.31,0-53.53-16.22-73.73-39.4Z"/>
  <path class="st0" d="M2184.9,659.61c0,46.35-26.6,91.31-67,91.31-21.55,0-39.73-11.12-63.63-38.47l-40.74-47.28c18.18,18.54,39.39,29.2,61.95,29.2,40.06,0,66.66-36.15,66.66-82.51,0-30.59-5.05-50.52-25.59-73.24l42.08,46.81c20.87,23.18,26.26,43.11,26.26,74.16ZM2013.54,607.69l51.51,25.49c4.04,7.88,8.75,14.83,13.8,20.39-1.01.46-2.36.46-3.37.46-23.9,0-45.79-17.15-61.95-46.35ZM2047.54,557.63l-27.27-64.89c7.41,16.69,19.53,31.98,39.05,47.28,45.45,36.62,49.83,50.99,49.83,72.31,0,3.71-.34,7.88-1.01,11.12-5.72-5.56-12.79-11.12-21.21-18.54-19.86-15.3-32.32-30.13-39.39-47.28ZM2045.52,447.32c0-21.79,12.79-36.62,33.67-36.62s38.38,12.05,53.87,32.91v-51.45l42.42,47.28v51.45c-19.86-20.39-39.05-30.13-55.21-30.13-20.87,0-31.98,13.44-31.98,35.23,0,6.49,0,11.59,2.36,18.08l-7.41-6.03c-34.68-28.74-37.71-43.11-37.71-60.72ZM2116.22,538.17l.34.46-.34-.46Z"/>
  <path class="st0" d="M2206.11,690.2h133.32v-40.79l50.5,56.55v40.79h-133.32l-50.5-56.55ZM2239.1,414.41h97.3v-40.33l50.5,56.09v40.33h-97.3v40.33h-50.5v-96.41ZM2239.1,551.14h93.93v-40.33l50.5,56.09v40.79h-93.93v41.72h-50.5v-98.27Z"/>
</svg>